<svg xmlns="http://www.w3.org/2000/svg" xmlns:svgjs="http://svgjs.com/svgjs" xmlns:xlink="http://www.w3.org/1999/xlink" width="360" height="360"><svg xmlns="http://www.w3.org/2000/svg" width="360" height="360" enable-background="new 0 0 3000 3000" viewBox="0 0 3000 3000"><path fill="#e1e6fd" d="M1996.92,2137.12c251.79,8.7,434.43,50.85,434.43,110.77c-0.02,121.56-256.62,7.17-540.75,264.3
		c-136.07,123.14-387.36,119.88-534.12,78.13c-146.76-41.75-124.59-76.06-337.69,44.4c-213.1,120.46-365.9,191.63-414.62,104.39
		c-48.71-87.24-96.92,54.6-234.66-70.27c-137.74-124.87,149.22-276.38,32.14-340.66c-117.08-64.28-166.24-67,166.63-151.59
		C901.15,2092.02,1288.25,2112.62,1996.92,2137.12z" class="colore1e6fd svgShape"/><path fill="#f1f2ff" d="M2714.95,1007.89c14.27,185.3-87.07,431.73-289.45,640.6c-200.64,207.75-502.33,377.94-848.63,384.88
		c-345.58,12.56-652.95-143.86-850.76-356.71C525.75,1463.96,434.94,1194.83,463.5,985.2c65.03-430.22,535.2-477.06,1129.9-447.41
		c298.44,18.12,571.93,47.49,773.57,112.22C2568.82,715.98,2698.83,817.31,2714.95,1007.89z" class="colorf1f2ff svgShape"/><path fill="#fff" d="M2289.76,2172.13c41.79-10.82,86.3-30.98,115.99-68.45c27.26-34.4-27.04-67.65-27.48-96.58
					c-0.44-28.93,53.1-28.36,54.69-49.39c1.59-21.03-56.54-40.73-55.89-63.02c0.66-22.29,48.89-5.75,48.89-49.55
					c0-43.8-37.5-30.31-57.97-58.12c-20.47-27.81,61.37-166.57-14.06-168.53c-75.43-1.97-51.24,118.48-64.38,126.4
					c-13.13,7.92-43.9-20.98-67.6,6.09c-23.7,27.06,19.97,99.27,8.15,106.4c-11.82,7.12-34.59-8.34-57.31,7.18
					c-22.71,15.52,16.64,92.16-0.82,104.52c-8.24,5.82-11.2,5.63-15.58,7.09c-1.16,0.39-2.42,0.89-3.89,1.65
					c-4.79,2.45-11.92,7.6-25.57,20.25c-33.83,31.34-4.98,114.32-4.98,114.32l32.24,40.85L2289.76,2172.13z" class="color9199fb svgShape"/><path fill="#3349a7" d="M2377.07,1894.68c0.58-19.78,38.61-9.01,47.16-36.94c-8.73-3.23-18.3-4.54-28.49-4.45
					c-17.52,0.15-34.95,0.66-52.35-2.02c-16.57-2.56-34.23-7.68-45.86-20.5c-10.72-11.82-12.58-27.5-1.9-39.81
					c9-10.38,23.93-18.06,25.24-33.12c1.56-17.83-15.67-32.44-20.38-48.84c-8.22-28.57,6.22-52.63,17.68-77.52
					c-31.09,30.99-18.27,107.17-28.63,113.41c-13.13,7.92-43.9-20.98-67.6,6.09c-23.7,27.06,19.97,99.27,8.15,106.4
					c-11.82,7.12-34.59-8.34-57.31,7.18c-22.71,15.52,16.64,92.16-0.82,104.52c-8.24,5.82-11.2,5.63-15.58,7.09
					c-1.16,0.39-2.42,0.89-3.89,1.65c-4.79,2.45-11.92,7.6-25.57,20.25c-33.83,31.34-4.98,114.32-4.98,114.32l32.23,40.85
					l135.59,18.9c41.79-10.82,86.3-30.98,115.99-68.45c27.26-34.4-27.04-67.65-27.48-96.58c-0.44-28.93,53.1-28.36,54.68-49.39
					C2434.55,1936.68,2376.41,1916.98,2377.07,1894.68z" class="color3349a7 svgShape" opacity=".15"/><path fill="#60b73c" d="M2406.16,2151.09c11.25-30.95,68.08-7.77,78.56-29.36c10.5-21.58-42.77-66.79-32.74-90.1
					c10.04-23.31,54.14,14.4,72.49-31.95c18.35-46.35-26.98-47.79-37-85.79c-10.01-38,134.72-150.56,55.72-184.24
					c-79-33.68-103.86,103.92-121.08,106.8c-17.22,2.88-37.67-40.59-74.09-21.88c-36.42,18.71-20.45,113.42-35.94,116.01
					c-15.5,2.59-33.11-23.32-63.66-16.41c-30.54,6.91-21,104.5-44.66,110.26c-11.15,2.71-14.21,1.27-19.46,0.97
					c-1.39-0.07-2.93-0.07-4.81,0.11c-6.1,0.59-15.8,3.05-35.55,10.72c-48.93,19-53.16,118.89-53.16,118.89l17.46,58.26
					C2108.25,2213.38,2358.07,2283.4,2406.16,2151.09z" class="coloradbcff svgShape"/><path fill="#3349a7" d="M2377.87,2168.57c-14.21,3.27-30.32,2.23-42.82-5.81c-13.86-8.92-19.59-26.1-17.43-41.99
					c2.62-19.35,16.33-34.98,19.21-54.13c3.39-22.56-16.69-39.36-27.18-57.16c-4.46-7.57-8.94-16.41-6.58-25.4
					c2.09-7.98,8.56-14.16,13.81-20.2c14.77-16.99,19.99-36.64,16.57-58.86c-1.9-12.31-5.69-24.15-10.24-35.72
					c-3.64,29.64-2.48,59.84-11.13,61.29c-15.5,2.59-33.11-23.32-63.66-16.41c-30.54,6.91-21,104.5-44.66,110.26
					c-11.15,2.71-14.21,1.27-19.46,0.97c-1.39-0.07-2.93-0.07-4.81,0.11c-6.1,0.59-15.8,3.05-35.55,10.72
					c-48.93,19-53.16,118.89-53.16,118.89l17.46,58.26c0,0,243.93,68.35,296.1-57.71
					C2396.6,2161.61,2388.21,2166.19,2377.87,2168.57z" class="color3349a7 svgShape" opacity=".15"/><path fill="#e1e6fd" d="M2170.57,2213.38h6.96c4.26-4.45,9.31-9.74,15.2-15.96c4.37,1.71,22.14,8.51,45.9,15.96h16.66
				c-28.37-8.17-51.35-16.63-59.12-19.59c18.08-19.12,42.41-45.18,69.81-75.4l0.06,0.82c2.11,0.05,18.57,0.42,41.29,0.49
				c52.46,0.15,138.34-1.35,158.2-12.27c0,0-171.16,7.56-196.06,7.1c1.91-2.11,3.8-4.2,5.74-6.34l1.41-1.56
				c21.4-23.76,44.32-49.7,67.4-76.65c9.69-11.31,18.91-22.26,27.92-33.05l149.61-35.29l-144.66,29.33
				c101.48-122.15,158.28-209.81,168.67-260.65c0,0-92.43,160.8-173.21,258.06l-15.96-173.88l11.48,179.25
				c-31.2,37.39-62.97,73.72-92.01,106.07l-25.04-181l20.75,185.76c-26.77,29.74-50.93,55.82-69.93,76.05
				c0,0-20.26-155.31-22.15-155.12l17.84,159.71C2186.17,2197.07,2177.04,2206.64,2170.57,2213.38z" class="colore1e6fd svgShape" opacity=".5"/><path fill="#fff" d="M1313.72,222.17h810.8c89.44,0,162.2,72.76,162.2,162.21v1766.08c0,89.44-72.76,162.25-162.2,162.25h-810.8
			c-89.49,0-162.25-72.81-162.25-162.25V384.37C1151.48,294.93,1224.24,222.17,1313.72,222.17z" class="color9199fb svgShape"/><path fill="#60b73c" d="M2263.26,2150.45c0,76.52-62.24,138.78-138.73,138.78h-810.8c-76.52,0-138.78-62.26-138.78-138.78V384.37
			c0-76.5,62.26-138.74,138.78-138.74h810.8c76.5,0,138.73,62.24,138.73,138.74V2150.45z" class="coloradbcff svgShape"/><g class="color000 svgShape" opacity=".5"><rect width="312.49" height="169.68" x="1295.53" y="1104.84" fill="#e1e6fd" class="colore1e6fd svgShape"/><path fill="#e1e6fd" d="M1771.84 1143.65h-78.32c-6.18 0-11.18 5.01-11.18 11.18l0 0c0 6.18 5.01 11.18 11.18 11.18h78.32c6.18 0 11.18-5.01 11.18-11.18l0 0C1783.02 1148.65 1778.01 1143.65 1771.84 1143.65zM2131.6 1143.65h-326.36c-6.18 0-11.18 5.01-11.18 11.18l0 0c0 6.18 5.01 11.18 11.18 11.18h326.36c6.18 0 11.18-5.01 11.18-11.18l0 0C2142.78 1148.65 2137.77 1143.65 2131.6 1143.65zM1952.67 1193.64h-259.16c-6.18 0-11.18 5.01-11.18 11.18l0 0c0 6.18 5.01 11.18 11.18 11.18h259.16c6.18 0 11.18-5.01 11.18-11.18l0 0C1963.86 1198.65 1958.85 1193.64 1952.67 1193.64zM2131.6 1193.64h-145.52c-6.18 0-11.18 5.01-11.18 11.18l0 0c0 6.18 5.01 11.18 11.18 11.18h145.52c6.18 0 11.18-5.01 11.18-11.18l0 0C2142.78 1198.65 2137.77 1193.64 2131.6 1193.64zM1860.08 1254.82L1860.08 1254.82c0 6.18 5.01 11.18 11.18 11.18h221.11c6.18 0 11.18-5.01 11.18-11.18l0 0c0-6.18-5.01-11.18-11.18-11.18h-221.11C1865.09 1243.63 1860.08 1248.64 1860.08 1254.82zM1837.86 1243.63h-144.34c-6.18 0-11.18 5.01-11.18 11.18l0 0c0 6.18 5.01 11.18 11.18 11.18h144.34c6.18 0 11.18-5.01 11.18-11.18l0 0C1849.04 1248.64 1844.03 1243.63 1837.86 1243.63z" class="colore1e6fd svgShape"/><rect width="312.5" height="169.68" x="1830.29" y="1858.78" fill="#e1e6fd" class="colore1e6fd svgShape" transform="rotate(-180 1986.533 1943.617)"/><g class="color000 svgShape"><path fill="#e1e6fd" d="M1666.47 1897.59h78.32c6.18 0 11.18 5.01 11.18 11.18l0 0c0 6.18-5.01 11.18-11.18 11.18h-78.32c-6.18 0-11.18-5.01-11.18-11.18l0 0C1655.29 1902.59 1660.3 1897.59 1666.47 1897.59zM1306.71 1897.59h326.36c6.18 0 11.18 5.01 11.18 11.18l0 0c0 6.18-5.01 11.18-11.18 11.18h-326.36c-6.18 0-11.18-5.01-11.18-11.18l0 0C1295.53 1902.59 1300.53 1897.59 1306.71 1897.59zM1485.63 1947.58h259.16c6.18 0 11.18 5.01 11.18 11.18l0 0c0 6.18-5.01 11.18-11.18 11.18h-259.16c-6.18 0-11.18-5.01-11.18-11.18l0 0C1474.45 1952.59 1479.46 1947.58 1485.63 1947.58zM1306.71 1947.58h145.52c6.18 0 11.18 5.01 11.18 11.18l0 0c0 6.18-5.01 11.18-11.18 11.18h-145.52c-6.18 0-11.18-5.01-11.18-11.18l0 0C1295.53 1952.59 1300.53 1947.58 1306.71 1947.58zM1578.23 2008.76L1578.23 2008.76c0 6.18-5.01 11.18-11.18 11.18h-221.11c-6.18 0-11.18-5.01-11.18-11.18l0 0c0-6.18 5.01-11.18 11.18-11.18h221.11C1573.22 1997.58 1578.23 2002.58 1578.23 2008.76zM1600.45 1997.58h144.34c6.18 0 11.18 5.01 11.18 11.18l0 0c0 6.18-5.01 11.18-11.18 11.18h-144.34c-6.18 0-11.18-5.01-11.18-11.18l0 0C1589.27 2002.58 1594.28 1997.58 1600.45 1997.58z" class="colore1e6fd svgShape"/></g><g class="color000 svgShape"><path fill="#e1e6fd" d="M1419.65 1359.61h-108.62c-8.56 0-15.51 6.94-15.51 15.51l0 0c0 8.56 6.94 15.51 15.51 15.51h108.62c8.56 0 15.51-6.94 15.51-15.51l0 0C1435.16 1366.55 1428.22 1359.61 1419.65 1359.61zM1808.75 1375.12L1808.75 1375.12c0 8.56 6.94 15.51 15.51 15.51h310.31c8.56 0 15.51-6.94 15.51-15.51l0 0c0-8.56-6.94-15.51-15.51-15.51h-310.31C1815.69 1359.61 1808.75 1366.55 1808.75 1375.12zM1777.93 1359.61h-311.94c-8.56 0-15.51 6.94-15.51 15.51l0 0c0 8.56 6.94 15.51 15.51 15.51h311.94c8.56 0 15.51-6.94 15.51-15.51l0 0C1793.43 1366.55 1786.49 1359.61 1777.93 1359.61zM1670.45 1428.94h-359.41c-8.56 0-15.51 6.94-15.51 15.51l0 0c0 8.56 6.94 15.51 15.51 15.51h359.41c8.56 0 15.51-6.94 15.51-15.51l0 0C1685.95 1435.88 1679.01 1428.94 1670.45 1428.94zM1918.58 1428.94h-201.81c-8.56 0-15.51 6.94-15.51 15.51l0 0c0 8.56 6.94 15.51 15.51 15.51h201.81c8.56 0 15.51-6.94 15.51-15.51l0 0C1934.09 1435.88 1927.15 1428.94 1918.58 1428.94zM1949.4 1444.45L1949.4 1444.45c0 8.56 6.94 15.51 15.51 15.51h169.66c8.56 0 15.51-6.94 15.51-15.51l0 0c0-8.56-6.94-15.51-15.51-15.51h-169.66C1956.35 1428.94 1949.4 1435.88 1949.4 1444.45zM1542.03 1513.78L1542.03 1513.78c0 8.57 6.94 15.51 15.51 15.51h306.64c8.56 0 15.51-6.94 15.51-15.51v0c0-8.56-6.94-15.51-15.51-15.51h-306.64C1548.98 1498.27 1542.03 1505.22 1542.03 1513.78zM1511.21 1498.27h-200.18c-8.56 0-15.51 6.94-15.51 15.51v0c0 8.56 6.94 15.51 15.51 15.51h200.18c8.56 0 15.51-6.94 15.51-15.51v0C1526.72 1505.22 1519.78 1498.27 1511.21 1498.27z" class="colore1e6fd svgShape"/></g><g class="color000 svgShape"><path fill="#e1e6fd" d="M1419.65 1612.78h-108.62c-8.56 0-15.51 6.94-15.51 15.51l0 0c0 8.56 6.94 15.51 15.51 15.51h108.62c8.56 0 15.51-6.94 15.51-15.51l0 0C1435.16 1619.72 1428.22 1612.78 1419.65 1612.78zM1808.75 1628.28L1808.75 1628.28c0 8.56 6.94 15.51 15.51 15.51h310.31c8.56 0 15.51-6.94 15.51-15.51l0 0c0-8.56-6.94-15.51-15.51-15.51h-310.31C1815.69 1612.78 1808.75 1619.72 1808.75 1628.28zM1777.93 1612.78h-311.94c-8.56 0-15.51 6.94-15.51 15.51l0 0c0 8.56 6.94 15.51 15.51 15.51h311.94c8.56 0 15.51-6.94 15.51-15.51l0 0C1793.43 1619.72 1786.49 1612.78 1777.93 1612.78zM1670.45 1682.11h-359.41c-8.56 0-15.51 6.94-15.51 15.51v0c0 8.56 6.94 15.51 15.51 15.51h359.41c8.56 0 15.51-6.94 15.51-15.51v0C1685.95 1689.05 1679.01 1682.11 1670.45 1682.11zM1918.58 1682.11h-201.81c-8.56 0-15.51 6.94-15.51 15.51v0c0 8.56 6.94 15.51 15.51 15.51h201.81c8.56 0 15.51-6.94 15.51-15.51v0C1934.09 1689.05 1927.15 1682.11 1918.58 1682.11zM1949.4 1697.62L1949.4 1697.62c0 8.56 6.94 15.51 15.51 15.51h169.66c8.56 0 15.51-6.94 15.51-15.51v0c0-8.56-6.94-15.51-15.51-15.51h-169.66C1956.35 1682.11 1949.4 1689.05 1949.4 1697.62zM1542.03 1766.95L1542.03 1766.95c0 8.56 6.94 15.51 15.51 15.51h306.64c8.56 0 15.51-6.94 15.51-15.51v0c0-8.56-6.94-15.51-15.51-15.51h-306.64C1548.98 1751.44 1542.03 1758.39 1542.03 1766.95zM1511.21 1751.44h-200.18c-8.56 0-15.51 6.94-15.51 15.51v0c0 8.56 6.94 15.51 15.51 15.51h200.18c8.56 0 15.51-6.94 15.51-15.51v0C1526.72 1758.39 1519.78 1751.44 1511.21 1751.44z" class="colore1e6fd svgShape"/></g></g><path fill="#fff" d="M947.19,1619.76c0,0-115.08,9.89-126.16,101.77c-11.09,91.88,131.91,70.49,133.57,66.11
			C956.26,1783.26,947.19,1619.76,947.19,1619.76z" class="colorfff svgShape"/><path fill="#432d29" d="M1196.94,825.39c-41.16-10.67-217.21-36.29-235.18,91.39c-17.98,127.67,58.42,260.72,4.49,323.89
				c-53.93,63.16-125.83,127.67,3,178.74c128.83,51.07,509.03-44.8,434.79-126.87C1269.76,1144.09,1399.17,877.8,1196.94,825.39z" class="color432d29 svgShape"/><path fill="#fff" d="M1134.73,1204.72c0,0-187.54,93.98-213.99,536.85c-17.72,296.78-59.81,409.82-59.81,409.82
				s95.9,128.59,175.43-42.12s119.95-516.57,77.57-662.89C1071.55,1300.06,1127.35,1253.33,1134.73,1204.72z" class="colorfff svgShape"/><path fill="#e1e6fd" d="M1134.73,1204.72c-43.9,84.25-197.89,465.64-90.46,680.63c35.86,71.75,239.18,188.83,471.79,47.58
				C1637.8,1859.01,1484.51,1122.41,1134.73,1204.72z" class="colore1e6fd svgShape"/><path fill="#432d29" d="M1118.86 1954.43c9.63-6.47 17.8-14.89 23.33-26.45 8.02-16.79 11.21-38.1 5.38-56.08-4.53-13.98-15.75-21.96-28.53-27.95-28.92-13.56-61.9-27.05-72.84-60.15-10.03-30.32 2.32-63.07 5.61-93.51 2.25-20.83-.2-41.57-.3-62.42-.1-20.97 3.79-39.81 13.92-58.25 8.03-14.61 19.02-27.62 25.81-42.89 8.41-18.9 5.78-38.07 4.2-58.09-1.64-20.82-3.1-41.94.3-62.67 3.59-21.9 14.21-40.89 20.7-61.86 6.2-20.05 8.61-40.79 11.37-61.51 1.99-14.98 8.12-26.25 23.1-30.89 6.8-2.11 13.88-3.15 20.76-4.95 8.17-2.13 15.8-5.52 22.98-9.95 12.8-7.9 26.09-20.18 27.98-35.65-27.74-4.47-57.03-3.69-87.89 3.57-43.9 84.25-197.89 465.64-90.46 680.63C1055.11 1907.04 1081.26 1932.85 1118.86 1954.43zM1381.41 1944.87c24.67-43.36 36.63-100.13 13.23-146.35-10.8-21.33-27.98-38.47-40.98-58.37-13.88-21.26-22.51-46.35-30.46-70.33-16.62-50.17-26.7-102.12-36.74-153.91-7.83-40.38-15.75-80.86-26.24-120.65-3.53-13.41-7.51-26.74-12.6-39.65-3.64-9.23-8.02-22.04-16.4-28.19-2.39-1.75-3.64-1.98-5.71-.59-4.42 2.96-6.84 9.23-8.73 13.91-9.2 22.76-13.59 47.22-12.89 71.76.76 26.76 9.94 50.83 17.96 76.02 7.58 23.81 13.73 47.95 15.68 72.93.95 12.19 1.09 24.24 4.15 36.16 2.59 10.08 7.03 19.53 12.25 28.5 11.47 19.73 26.29 37.43 35.21 58.63 8.07 19.18 10.44 42.68-3.46 59.93-9.74 12.09-26.65 18.63-34.72 31.96 7.61.74 15.42.14 22.96-.44 11.55-.89 23.07-2.14 34.66-2.54 15.46-.54 37.27-.38 46.02 15.09 4.67 8.25 3.75 18.57 1.89 27.49-2.02 9.73-6.12 18.82-12.78 26.25-13.28 14.82-33.54 20.55-52.64 23.03-16.84 2.19-33.81 2.02-50.76 2.32 2.68 3.49 5.93 6.61 9.14 9.5 6.37 5.73 13.11 11.02 19.45 16.78 10.22 9.26 21.12 20.7 21.78 35.29.7 15.35-10.28 28.73-22.8 36.27-13.54 8.16-29.02 11.19-44.92 12.16 1.7 5.3 3.52 10.56 5.43 15.79 29.95 5.34 62.54 7.27 97.11 4.3C1347.33 1983.61 1368.18 1968.12 1381.41 1944.87z" class="color432d29 svgShape" opacity=".1"/><path fill="#60b73c" d="M1158.29 1320.36c-.67 0-1.32-.34-1.7-.95-.57-.94-.27-2.16.66-2.73 9.39-5.71 7.01-15.08 6.9-15.47-.28-1.06.34-2.15 1.4-2.43 1.05-.3 2.14.33 2.43 1.38 1.2 4.34.93 14.07-8.67 19.92C1159 1320.27 1158.64 1320.36 1158.29 1320.36zM1222.17 1507.93c-.67 0-1.32-.34-1.7-.95-.57-.94-.27-2.16.66-2.73 9.39-5.71 7.01-15.08 6.9-15.47-.28-1.06.34-2.15 1.4-2.43 1.05-.29 2.14.33 2.43 1.38 1.2 4.34.93 14.07-8.67 19.92C1222.87 1507.83 1222.52 1507.93 1222.17 1507.93zM1193.13 1888.33c-.67 0-1.32-.34-1.7-.95-.57-.94-.27-2.16.66-2.73 9.39-5.71 7.01-15.08 6.9-15.47-.28-1.06.34-2.15 1.4-2.43 1.05-.29 2.14.33 2.43 1.38 1.2 4.34.93 14.07-8.67 19.92C1193.84 1888.24 1193.48 1888.33 1193.13 1888.33zM1200.07 1600.17c0 .67-.34 1.32-.95 1.7-.94.57-2.16.27-2.73-.66-5.71-9.39-15.08-7.01-15.47-6.9-1.06.28-2.15-.34-2.43-1.4-.29-1.05.33-2.14 1.38-2.43 4.34-1.2 14.07-.93 19.92 8.67C1199.97 1599.47 1200.07 1599.82 1200.07 1600.17zM1091.27 1645.54c-.67 0-1.32-.34-1.7-.95-.57-.94-.27-2.16.66-2.73 9.39-5.71 7.01-15.08 6.9-15.47-.28-1.06.34-2.15 1.4-2.43 1.05-.3 2.14.33 2.43 1.38 1.2 4.34.93 14.07-8.67 19.92C1091.98 1645.45 1091.63 1645.54 1091.27 1645.54zM1124.92 1426.47c-.06-.67.21-1.35.79-1.78.88-.66 2.12-.48 2.78.4 6.58 8.8 15.67 5.54 16.06 5.4 1.03-.38 2.17.14 2.55 1.16.39 1.01-.12 2.16-1.14 2.55-4.2 1.61-13.92 2.26-20.65-6.74C1125.08 1427.17 1124.95 1426.82 1124.92 1426.47zM1171.01 1384.33c-.06-.67.21-1.35.79-1.78.88-.66 2.12-.48 2.78.4 6.58 8.8 15.67 5.55 16.06 5.4 1.03-.38 2.17.14 2.55 1.16.39 1.01-.12 2.16-1.15 2.55-4.2 1.6-13.92 2.26-20.65-6.74C1171.17 1385.02 1171.05 1384.68 1171.01 1384.33zM1164.67 1468.56c-.06-.67.21-1.35.79-1.78.88-.66 2.12-.48 2.78.4 6.58 8.8 15.67 5.55 16.06 5.4 1.03-.38 2.17.14 2.55 1.16.39 1.01-.12 2.16-1.15 2.55-4.2 1.6-13.92 2.26-20.65-6.74C1164.83 1469.26 1164.7 1468.91 1164.67 1468.56zM1225.68 1941.03c-.06-.67.21-1.35.79-1.78.88-.66 2.12-.48 2.78.4 6.58 8.8 15.67 5.55 16.06 5.4 1.03-.38 2.17.14 2.55 1.16.39 1.01-.12 2.16-1.14 2.55-4.2 1.6-13.92 2.26-20.65-6.74C1225.84 1941.73 1225.71 1941.38 1225.68 1941.03zM1068.17 1549.43c-.06-.67.21-1.35.79-1.78.88-.66 2.12-.48 2.78.4 6.58 8.8 15.67 5.55 16.06 5.4 1.03-.38 2.17.14 2.55 1.16.39 1.01-.12 2.16-1.15 2.55-4.2 1.61-13.92 2.26-20.65-6.74C1068.33 1550.13 1068.2 1549.78 1068.17 1549.43zM1277.1 1742.92c-.06-.67.21-1.35.79-1.78.88-.66 2.12-.48 2.78.4 6.58 8.8 15.67 5.55 16.06 5.4 1.03-.38 2.17.14 2.55 1.16.39 1.01-.12 2.16-1.14 2.55-4.2 1.6-13.92 2.26-20.65-6.74C1277.26 1743.61 1277.13 1743.27 1277.1 1742.92zM1255.37 1440.33c-3.64 0-6.12-2.16-9.3-4.92-1.45-1.26-3.09-2.68-5.15-4.19-4.66-3.4-5.31-2.82-8.47.02-1.73 1.56-4.1 3.69-7.79 5.57-3.4 1.74-6.61 2.03-9.52.86-5.19-2.08-7.32-8.09-7.41-8.34-.36-1.04.19-2.17 1.23-2.53 1.03-.36 2.16.19 2.52 1.22l0 0c.02.05 1.65 4.58 5.16 5.97 1.83.73 3.86.49 6.22-.72 3.22-1.65 5.28-3.5 6.94-4.99 3.84-3.46 6.55-5.32 13.46-.27 2.19 1.6 3.9 3.09 5.41 4.4 4.71 4.09 6.14 5.33 12.16 2.21.97-.5 2.17-.12 2.68.85.5.97.12 2.17-.85 2.68C1259.68 1439.69 1257.35 1440.33 1255.37 1440.33zM1074.84 1491.81c-2.99 1.49-5.29 2.18-7.28 2.18-3.61 0-6.1-2.18-9.33-4.91-1.43-1.31-3.05-2.67-5.1-4.23-4.66-3.36-5.35-2.8-8.52.06-1.68 1.56-4.04 3.67-7.77 5.54-1 .56-2.05.93-3.05 1.18.37-1.56.68-3.11 1.06-4.66.06 0 .12 0 .19-.06 3.23-1.62 5.29-3.48 6.97-4.98 3.86-3.42 6.53-5.29 13.44-.25 2.24 1.62 3.92 3.05 5.41 4.35 4.73 4.1 6.16 5.35 12.19 2.24.93-.5 2.18-.12 2.67.87C1076.2 1490.07 1075.83 1491.31 1074.84 1491.81zM1223.22 1654.83c-3.64 0-6.12-2.16-9.3-4.92-1.45-1.26-3.09-2.69-5.15-4.19-4.66-3.4-5.31-2.81-8.46.02-1.73 1.56-4.1 3.69-7.79 5.57-3.4 1.74-6.61 2.03-9.52.86-5.19-2.08-7.32-8.09-7.41-8.34-.36-1.04.19-2.17 1.23-2.53 1.03-.36 2.16.19 2.52 1.22l0 0c.02.05 1.65 4.58 5.16 5.97 1.83.73 3.86.49 6.22-.72 3.22-1.65 5.28-3.5 6.94-4.99 3.84-3.46 6.55-5.32 13.46-.27 2.19 1.6 3.9 3.09 5.41 4.4 4.71 4.09 6.14 5.33 12.16 2.21.97-.5 2.17-.12 2.67.85.5.97.12 2.17-.85 2.68C1227.53 1654.19 1225.21 1654.83 1223.22 1654.83zM1156.4 1885.21c-3.64 0-6.12-2.16-9.3-4.92-1.45-1.26-3.09-2.69-5.15-4.19-4.66-3.4-5.31-2.82-8.47.02-1.73 1.56-4.1 3.69-7.79 5.57-3.4 1.74-6.61 2.03-9.52.86-5.19-2.08-7.32-8.09-7.41-8.34-.36-1.04.19-2.17 1.23-2.53 1.03-.36 2.16.19 2.52 1.22l0 0c.02.05 1.65 4.58 5.16 5.97 1.83.73 3.86.49 6.22-.72 3.22-1.65 5.28-3.5 6.94-4.99 3.84-3.46 6.55-5.32 13.46-.27 2.19 1.6 3.9 3.09 5.41 4.4 4.71 4.09 6.14 5.33 12.16 2.21.97-.5 2.17-.12 2.67.85.5.97.12 2.17-.85 2.68C1160.71 1884.57 1158.38 1885.21 1156.4 1885.21zM1057.85 1593.88c-2.99 1.56-5.29 2.18-7.28 2.18-3.61 0-6.1-2.18-9.33-4.91-1.43-1.24-3.05-2.68-5.1-4.17-4.66-3.42-5.35-2.8-8.46 0-1.74 1.56-4.11 3.67-7.84 5.6-1.8.99-3.61 1.49-5.29 1.49.25-1.37.44-2.67.56-4.04.93-.12 1.87-.5 2.92-.99 3.23-1.68 5.29-3.48 6.97-4.98 3.86-3.48 6.53-5.35 13.44-.31 2.24 1.62 3.92 3.11 5.41 4.42 4.73 4.11 6.16 5.35 12.19 2.18.93-.5 2.18-.12 2.67.87C1059.22 1592.2 1058.85 1593.39 1057.85 1593.88zM1114.9 1525.58c-.16 0-.33-.02-.5-.06-5.28-1.37-7.57-4.63-8.57-7.13-1.87-4.69-.6-10.18 1.49-13.54 3.7-5.93 5.03-10.84-.46-15.48-2.79-2.36-3.19-4.8-3.04-6.44.47-5.09 6.72-8.78 7.43-9.19.96-.54 2.16-.21 2.7.74.54.95.21 2.16-.74 2.71-1.34.77-5.21 3.53-5.44 6.11-.03.38-.14 1.52 1.65 3.03 9.24 7.81 3.45 17.11 1.27 20.61-1.51 2.43-2.52 6.58-1.17 9.96.96 2.39 2.94 3.99 5.88 4.76 1.06.28 1.7 1.36 1.42 2.42C1116.59 1524.98 1115.78 1525.58 1114.9 1525.58zM1128.52 1379.65c-.16 0-.33-.02-.5-.06-5.28-1.37-7.57-4.63-8.57-7.13-1.87-4.69-.6-10.18 1.49-13.54 3.7-5.93 5.03-10.84-.46-15.48-2.79-2.36-3.19-4.8-3.04-6.44.47-5.09 6.72-8.78 7.43-9.19.96-.54 2.16-.21 2.71.74.54.95.21 2.16-.74 2.71-1.34.77-5.21 3.53-5.44 6.11-.04.38-.14 1.52 1.65 3.03 9.24 7.81 3.45 17.11 1.27 20.61-1.51 2.43-2.52 6.58-1.17 9.96.96 2.39 2.94 3.99 5.88 4.76 1.06.28 1.7 1.36 1.42 2.42C1130.21 1379.06 1129.4 1379.65 1128.52 1379.65zM1094.35 1750.13c-.17 0-.33-.02-.5-.06-5.28-1.37-7.57-4.63-8.57-7.13-1.87-4.69-.6-10.18 1.49-13.54 3.7-5.93 5.03-10.84-.46-15.48-2.79-2.36-3.19-4.8-3.04-6.44.47-5.09 6.72-8.78 7.43-9.19.96-.54 2.16-.21 2.7.74.54.95.21 2.16-.74 2.71-1.34.77-5.21 3.53-5.44 6.11-.03.38-.14 1.52 1.65 3.03 9.24 7.81 3.45 17.11 1.27 20.61-1.51 2.43-2.52 6.58-1.17 9.96.96 2.39 2.94 3.99 5.88 4.76 1.06.27 1.7 1.36 1.42 2.42C1096.04 1749.54 1095.23 1750.13 1094.35 1750.13zM1147.17 1694.27c-.17 0-.33-.02-.5-.06-5.28-1.37-7.57-4.63-8.57-7.13-1.87-4.69-.6-10.18 1.49-13.53 3.7-5.93 5.03-10.84-.46-15.48-2.79-2.36-3.19-4.8-3.04-6.44.47-5.09 6.72-8.78 7.43-9.19.96-.54 2.16-.21 2.7.74.54.95.21 2.16-.74 2.71-1.34.77-5.21 3.53-5.44 6.11-.03.38-.14 1.52 1.65 3.03 9.24 7.81 3.45 17.11 1.27 20.61-1.51 2.43-2.52 6.58-1.17 9.96.96 2.39 2.94 3.99 5.88 4.76 1.06.27 1.7 1.36 1.42 2.42C1148.86 1693.67 1148.06 1694.27 1147.17 1694.27zM1277.01 1544.54c.09.14.17.29.23.45 1.83 5.13.43 8.87-1.08 11.09-2.82 4.19-8.08 6.22-12.03 6.38-6.99.28-11.79 1.93-12.55 9.08-.38 3.63-2.18 5.34-3.62 6.13-4.48 2.47-11.04-.62-11.78-.98-.99-.49-1.39-1.67-.91-2.65.48-.98 1.67-1.39 2.65-.91 1.39.68 5.85 2.32 8.11 1.07.33-.18 1.34-.74 1.58-3.07 1.27-12.03 12.21-12.47 16.33-12.63 2.86-.12 6.86-1.61 8.9-4.63 1.44-2.14 1.65-4.67.63-7.54-.37-1.03.17-2.17 1.2-2.54C1275.57 1543.48 1276.51 1543.81 1277.01 1544.54zM1243.02 1726.07c0 .17-.02.33-.06.5-1.37 5.28-4.63 7.57-7.13 8.57-4.69 1.87-10.18.6-13.54-1.49-5.93-3.7-10.84-5.03-15.48.46-2.36 2.79-4.8 3.19-6.44 3.04-5.09-.47-8.78-6.72-9.19-7.43-.54-.96-.21-2.16.74-2.71.95-.54 2.16-.21 2.71.74.77 1.34 3.53 5.21 6.11 5.44.38.03 1.52.14 3.03-1.65 7.81-9.24 17.11-3.45 20.61-1.27 2.43 1.51 6.58 2.52 9.96 1.17 2.39-.96 3.99-2.94 4.76-5.88.28-1.06 1.36-1.7 2.42-1.42C1242.43 1724.38 1243.02 1725.19 1243.02 1726.07zM1043.92 1732.09c-2.86 4.23-8.09 6.22-12.07 6.41-6.97.25-11.76 1.93-12.5 9.08-.44 3.61-2.18 5.35-3.67 6.1-1.93 1.06-4.23 1.12-6.28.75-.12-1.37-.25-2.74-.43-4.11 1.68.44 3.61.62 4.85-.06.31-.19 1.31-.75 1.56-3.11 1.31-12.01 12.25-12.44 16.36-12.63 2.86-.12 6.84-1.62 8.89-4.6 1.43-2.18 1.62-4.67.62-7.59-.37-.99.19-2.11 1.18-2.49.87-.31 1.8 0 2.3.75.12.12.19.25.25.44C1046.85 1726.18 1045.41 1729.91 1043.92 1732.09zM1157.22 1562.96c-5.66 0-10.26-4.6-10.26-10.26 0-5.66 4.6-10.26 10.26-10.26 5.66 0 10.26 4.6 10.26 10.26C1167.48 1558.35 1162.88 1562.96 1157.22 1562.96zM1157.22 1546.41c-3.47 0-6.29 2.82-6.29 6.29 0 3.47 2.82 6.29 6.29 6.29 3.47 0 6.29-2.82 6.29-6.29C1163.51 1549.23 1160.69 1546.41 1157.22 1546.41zM1269.41 1912.56c-5.66 0-10.26-4.6-10.26-10.26 0-5.66 4.6-10.26 10.26-10.26 5.66 0 10.26 4.6 10.26 10.26C1279.67 1907.96 1275.07 1912.56 1269.41 1912.56zM1269.41 1896.02c-3.47 0-6.29 2.82-6.29 6.29 0 3.47 2.82 6.29 6.29 6.29 3.47 0 6.29-2.82 6.29-6.29C1275.7 1898.84 1272.88 1896.02 1269.41 1896.02zM1083.24 1429.73c-5.66 0-10.26-4.6-10.26-10.26 0-5.66 4.6-10.26 10.26-10.26 5.66 0 10.26 4.6 10.26 10.26C1093.5 1425.13 1088.9 1429.73 1083.24 1429.73zM1083.24 1413.18c-3.47 0-6.29 2.82-6.29 6.29 0 3.47 2.82 6.29 6.29 6.29 3.47 0 6.29-2.82 6.29-6.29C1089.53 1416.01 1086.71 1413.18 1083.24 1413.18zM1030.82 1662.96c-5.66 0-10.26-4.6-10.26-10.26 0-5.66 4.6-10.26 10.26-10.26 5.66 0 10.26 4.6 10.26 10.26C1041.08 1658.36 1036.48 1662.96 1030.82 1662.96zM1030.82 1646.41c-3.47 0-6.29 2.82-6.29 6.29 0 3.47 2.82 6.29 6.29 6.29 3.47 0 6.29-2.82 6.29-6.29C1037.11 1649.23 1034.29 1646.41 1030.82 1646.41zM1253.57 1697.51c-5.66 0-10.26-4.6-10.26-10.26 0-5.66 4.6-10.26 10.26-10.26 5.66 0 10.26 4.6 10.26 10.26C1263.83 1692.91 1259.23 1697.51 1253.57 1697.51zM1253.57 1680.96c-3.47 0-6.29 2.82-6.29 6.29 0 3.47 2.82 6.29 6.29 6.29 3.47 0 6.29-2.82 6.29-6.29C1259.86 1683.78 1257.04 1680.96 1253.57 1680.96zM1146.96 1750.93c-5.66 0-10.26-4.6-10.26-10.26 0-5.66 4.6-10.26 10.26-10.26 5.66 0 10.26 4.6 10.26 10.26C1157.22 1746.33 1152.62 1750.93 1146.96 1750.93zM1146.96 1734.39c-3.47 0-6.29 2.82-6.29 6.29 0 3.47 2.82 6.29 6.29 6.29 3.47 0 6.29-2.82 6.29-6.29C1153.25 1737.21 1150.43 1734.39 1146.96 1734.39zM1197.24 1334.02c-5.66 0-10.26-4.6-10.26-10.26 0-5.66 4.6-10.26 10.26-10.26 5.66 0 10.26 4.6 10.26 10.26C1207.5 1329.42 1202.89 1334.02 1197.24 1334.02zM1197.24 1317.47c-3.47 0-6.29 2.82-6.29 6.29 0 3.47 2.82 6.29 6.29 6.29 3.47 0 6.29-2.82 6.29-6.29C1203.53 1320.29 1200.7 1317.47 1197.24 1317.47zM1130.24 1292.62c-5.66 0-10.26-4.6-10.26-10.26 0-5.66 4.6-10.26 10.26-10.26 5.66 0 10.26 4.6 10.26 10.26C1140.5 1288.02 1135.9 1292.62 1130.24 1292.62zM1130.24 1276.08c-3.47 0-6.29 2.82-6.29 6.29 0 3.47 2.82 6.29 6.29 6.29 3.47 0 6.29-2.82 6.29-6.29C1136.53 1278.9 1133.71 1276.08 1130.24 1276.08z" class="coloradbcff svgShape"/><g class="color000 svgShape"><path fill="#f4c095" d="M390.3,2574.07c0,0,21.13-90.72,35.3-90.55c14.17,0.17,42.06,11.48,45.51,20
									c3.45,8.52-42.01,93.48-58.02,99.42C397.08,2608.88,385.52,2598.43,390.3,2574.07z" class="colorf4c095 svgShape"/><path fill="#fff" d="M422.33,2567.81c-1.74-15.02-2.63-30.13-3.27-45.24c-0.31-7.32-0.55-14.6-1.32-21.88
									c-0.3-2.81-0.61-5.63-0.89-8.44c-12.77,22.68-26.55,81.82-26.55,81.82c-4.77,24.36,6.78,34.81,22.79,28.87
									c2.9-1.07,6.76-4.76,11.12-10.08C423.79,2584.5,423.29,2576.14,422.33,2567.81z" class="colorfff svgShape" opacity=".2"/><path fill="#ced9ef" d="M419.06,2525.72c-4.43-3.45-8.49-7.36-12.83-10.92c-19.11,36.08-16.92,59.7-16.92,59.7
									c-4.99,25.48,7.09,36.4,23.84,30.19c9.79-3.63,30.08-35.48,44.54-63.1C444.05,2542.33,428.67,2533.2,419.06,2525.72z" class="colorced9ef svgShape"/><path fill="#432d29" d="M384.34,2669.16c57.12-31.46,69.14-68.52,61.74-92.56c-2.55-8.18-4.78-8.16-21.23-6.11
								c-12.19,1.53-24.92-9.82-31.6-16.71c-2.28-2.34-3.85-4.15-4.46-4.76c-2.44-2.36-16.76-5.38-31.06,17.3
								c-17.83-37.55-27.72-56.68-69.26-66.44c-0.78-0.17-1.51,0.35-2.14,1.54C277.57,2517.5,286.37,2653.62,384.34,2669.16z" class="color432d29 svgShape"/><path fill="#301916" d="M698.73 1770.94c107.35-53.8 359.67 95.21 69.54 435.1-80.75 134.29-308.2 362.45-308.2 362.45l-71.65-35.66C388.41 2532.83 510.94 1865.05 698.73 1770.94zM384.34 2669.16c-4.64-76.96-95.87-169.27-95.87-169.27-.73.51-1.45 1.03-2.14 1.54C277.57 2517.5 286.37 2653.62 384.34 2669.16z" class="color301916 svgShape"/><g class="color000 svgShape"><path fill="#432d29" d="M902.49,2190.81c19.13-43.29,38.58-86.43,57.98-129.59c19.38-43.13,38.71-86.28,57.59-129.63
						c12.5-28.72,24.77-57.53,36.76-86.47c59.78,48.59,122.13,96.9,185.55,124.91c172.85,76.34,277.07,15.38,277.07,15.38
						s113,170.43-62.45,339.05c-118.35,113.74-394.53-12.23-561.59-112.96C896.43,2204.6,899.45,2197.7,902.49,2190.81z" class="color432d29 svgShape"/></g><g class="color000 svgShape" opacity=".5"><path fill="#301916" d="M1313.38,2295.54c3.67-8.41,6.89-17.11,9.56-25.89c1.98-6.5,3.51-13.23,3.35-20.06
						c-0.34-14.2-9.78-24.91-18.65-35.04c-8.01-9.14-17.52-18.71-22.17-30.14c-4.75-11.67-3.17-24.96-1.72-37.13
						c2.04-17.14,6.32-33.92,8.28-51.06c1.8-15.79,1.35-32.81-7.94-46.37c-7.7-11.25-20.35-18.03-32.9-22.52
						c-13.38-4.78-27.85-7.55-42.09-6.78c-6.15,0.33-12.49,1.37-18.15,3.86c-5.88,2.59-9.67,6.58-13.07,11.97
						c-8.38,13.3-12.28,29.09-17.06,43.9c-5.39,16.69-13.72,32.06-23.55,46.56c-10.99,16.23-24.46,29.88-39.35,42.55
						c-29.38,25.01-62.21,46.12-96.57,63.61c-12.7,6.46-25.68,12.49-38.91,17.93c-24.43-13.18-47.64-26.5-69.05-39.41
						c3.03-6.9,6.05-13.8,9.09-20.7c19.12-43.29,38.58-86.43,57.98-129.6c19.38-43.12,38.71-86.28,57.59-129.63
						c12.5-28.72,24.78-57.53,36.76-86.47c59.78,48.59,122.13,96.9,185.55,124.91c172.85,76.34,277.07,15.38,277.07,15.38
						s113,170.43-62.45,339.05c-44.53,42.79-111.4,51.65-186.39,40.69C1286.9,2344.3,1302.4,2320.69,1313.38,2295.54z" class="color301916 svgShape"/></g><g class="color000 svgShape"><path fill="#f4c095" d="M702.23,2678.1c0,0,11.51-92.44,25.62-93.75c14.11-1.31,43.03,7.01,47.36,15.12
								c4.32,8.12-31.98,97.36-47.28,104.95C712.62,2712.01,700.03,2702.83,702.23,2678.1z" class="colorf4c095 svgShape"/><path fill="#fff" d="M733.42,2668.52c-3.3-14.76-5.77-29.69-7.99-44.65c-1.07-7.24-2.07-14.46-3.61-21.63
								c-0.59-2.77-1.19-5.53-1.77-8.3c-10.32,23.9-17.83,84.15-17.83,84.15c-2.2,24.73,10.39,33.91,25.69,26.32
								c2.77-1.37,6.23-5.44,10-11.19C736.63,2684.96,735.26,2676.71,733.42,2668.52z" class="colorfff svgShape" opacity=".2"/><path fill="#ced9ef" d="M725.76,2627.01c-4.77-2.97-9.21-6.43-13.9-9.52c-15.23,37.88-10.57,61.15-10.57,61.15
								c-2.3,25.86,10.87,35.46,26.87,27.52c9.35-4.64,26.2-38.43,37.69-67.42C752.36,2640.9,736.1,2633.44,725.76,2627.01z" class="colorced9ef svgShape"/><path fill="#432d29" d="M706.26 2773.3c53.51-37.27 61.58-75.38 51.71-98.52-3.39-7.86-5.61-7.61-21.75-3.85-11.96 2.8-25.81-7.15-33.17-13.3-2.51-2.09-4.27-3.72-4.94-4.27-2.68-2.09-17.24-3.6-29.07 20.46-21.67-35.47-33.51-53.46-75.84-58.82-.79-.08-1.46.5-1.97 1.76C584.19 2633.66 607.2 2768.11 706.26 2773.3zM924.82 1847.09c101.13-64.75 367.66 57.01 114.74 425.42-66.24 142.01-268.54 392.74-268.54 392.74l-74.99-27.96C696.03 2637.29 747.92 1960.35 924.82 1847.09z" class="color432d29 svgShape"/></g><path fill="#301916" d="M706.26,2773.3c-12.68-76.05-113.08-158.3-113.08-158.3c-0.67,0.59-1.34,1.17-1.97,1.76
					C584.19,2633.66,607.2,2768.11,706.26,2773.3z" class="color301916 svgShape"/></g><path fill="#fff" d="M1232.46,1200.95c0,0-37.31,267.08,63.84,434.73c101.15,167.65-17.64,622.56-12.73,710.87
				c4.91,88.31,384.35,29.86,384.35-4.47c0,0-136.33-226.67-116.43-434.54C1571.39,1699.67,1523.66,1263.95,1232.46,1200.95z" class="colorfff svgShape"/><path fill="#432d29" d="M1551.5 1907.53c2.56-26.73 3.99-57.24 3.93-90.22-72.32 12.7-144.86 24.9-218.25 26.23.07 21.41-.51 43.34-1.66 65.55 10.63 13.12 24.3 23.23 41.37 27.37 20.71 5.03 42.8 3.12 63.02 10.4 17.1 6.16 30.88 18.54 38.24 35.15 7.2 16.24 9.18 34.33 17.21 50.25 4.6 9.11 11.15 16.22 19.36 22.21 8.17 5.96 16.18 11.76 22.06 20.16 6.28 8.96 8.85 19.44 12.51 29.59 4.09 11.33 10.33 19.8 20.08 26.91 3.36 2.45 6.85 4.42 10.42 5.91C1558.64 2066.59 1544.01 1985.73 1551.5 1907.53zM1404.03 1669.04c-5.24-17.67-7.55-35.37-10.14-53.54-2.54-17.78-6.23-35.39-10.61-52.81-6.47-25.67-15.04-50.53-23.64-75.53-3.29-9.57-6.61-19.13-10.57-28.45-3.23-7.59-6.87-17.59-13.45-23.01-4.48-3.69-10.6-1.35-14.26 2.41-5.47 5.63-8.06 14.06-9.92 21.48-3.92 15.59-5.43 33.38-3.06 49.36 4.01 27.08 16.75 53 26.01 78.54 10 27.57 17.44 55.95 16.01 85.52-1.04 21.7-6.74 43.37-21.27 60.04-.53.6-1.11 1.15-1.65 1.74 2.05 14.16 3.54 29.04 4.55 44.47 35.23-.19 70.58-1.49 104.9-9.5C1429.35 1735.12 1414.08 1702.94 1404.03 1669.04z" class="color432d29 svgShape" opacity=".1"/><g class="color000 svgShape"><path fill="#edb29f" d="M1099.58,1756.61c0,0-15.29-22.15-35.59-31.23c-8.84-3.95-23.9,4.84-26.79,11.54
						c-2.67,6.18,1.42,22.55,4.81,26.5c3.39,3.94,8.62,8.03,11.53-5.18c2.92-13.21,6.58-12.93,6.58-12.93L1099.58,1756.61z" class="coloredb29f svgShape"/><path fill="#f4caba" d="M976.07,1696.96c5.08,3.61,14.3-0.04,14.73-10.38c0.43-10.34-5.77-10.01-1.88-20.24
											c3.89-10.23,9.13-21.29,1.32-21.66c-7.81-0.37-14.61,9.73-16,16.55C972.85,1668.05,976.07,1696.96,976.07,1696.96z" class="colorf4caba svgShape"/><path fill="#fff" d="M991.42,1646.76c-1.47-0.16-2.98,0.15-4.4,0.48c-1.54,0.36-3.04,0.83-4.51,1.41
											c-0.7,0.28-1.4,0.59-2.08,0.94c2.75-2.98,6.17-5.08,9.81-4.91c2.5,0.12,3.66,1.33,3.96,3.26
											C993.43,1647.29,992.51,1646.87,991.42,1646.76z" class="colorfff svgShape" opacity=".25"/><path fill="#d66e85" d="M974.24,1661.23c0.62-3.04,2.31-6.72,4.68-9.84c0.09,4,1.08,7.93,1.73,11.86
											c0.66,4.01,1.38,8,2.04,12.01c0.33,1.98,0.57,3.97,0.93,5.95c0.32,1.76,0.83,3.49,1.52,5.15c0.7,1.69,2.4,5.94,4.85,4.64
											c-2.44,6.9-9.64,9-13.91,5.97C976.07,1696.96,972.85,1668.05,974.24,1661.23z" class="colord66e85 svgShape" opacity=".25"/><path fill="#301916" d="M964.14,1813.42l-32.15,3.51c-1.43,0.16-2.83,0.36-4.23,0.11c-0.28-0.05-0.58-0.05-0.89-0.03
													l-7.08,0.77c-0.31,0.03-0.61,0.11-0.88,0.22c-1.38,0.55-2.79,0.66-4.24,0.81l-33.55,3.66
													c-10.44,1.13-19.42-6.51-19.98-17.1l-2.36-44.7l-2.28-43.43l-6.9-130.82c-0.57-10.77,7.63-19.54,18.23-19.56l84.26-0.21
													c9.79-0.03,18.06,8.26,18.56,18.49l10.03,208.15C981.17,1803.37,973.79,1812.37,964.14,1813.42z" class="color301916 svgShape"/><path fill="#513f3c" d="M872.44,1563.36l84.25-0.22c9.79-0.03,18.06,8.26,18.56,18.5l10.03,208.15
													c0.49,10.07-6.88,19.08-16.53,20.13l-32.15,3.5c-1.43,0.16-2.83,0.36-4.23,0.12c-0.29-0.05-0.59-0.06-0.89-0.03
													l-7.08,0.77c-0.31,0.03-0.61,0.11-0.89,0.22c-1.37,0.55-2.79,0.65-4.24,0.81l-33.54,3.65
													c-10.44,1.14-19.42-6.51-19.98-17.1l-11.55-218.94C853.64,1572.15,861.84,1563.39,872.44,1563.36z" class="color513f3c svgShape"/><path fill="#f9f8fd" d="M873.26,1570.56l83.35-0.46c6.44-0.04,11.9,5.41,12.23,12.15l10.06,207.66
													c0.32,6.64-4.54,12.56-10.9,13.23l-82.19,8.71c-6.85,0.73-12.73-4.3-13.09-11.24l-11.4-217.19
													C860.95,1576.35,866.31,1570.6,873.26,1570.56z" class="colorf9f8fd svgShape"/><path fill="#e0e2e5" d="M905.98,1572.55l19.64-0.13c0.34,0,0.63,0.28,0.65,0.64c0.02,0.35-0.25,0.64-0.59,0.65
													l-19.64,0.14c-0.35,0-0.65-0.29-0.66-0.64C905.36,1572.84,905.63,1572.55,905.98,1572.55z" class="colore0e2e5 svgShape"/><path fill="#eaedf2" d="M909.86,1804.71l34.93-3.63c0.34-0.04,0.62,0.22,0.64,0.57c0.02,0.35-0.24,0.66-0.58,0.69
													l-34.92,3.65c-0.35,0.04-0.64-0.22-0.66-0.57C909.25,1805.06,909.52,1804.75,909.86,1804.71z" class="coloreaedf2 svgShape"/><path fill="#f4caba" d="M848.84,1665.04c0,0-7.77,1.54-8.51-6.64c-0.73-8.18,16.22-25.27,23.18-21.58
												c6.96,3.69,2.99,11.02-3.19,14.47c-6.18,3.44-7.71,9.03-7.71,9.03L848.84,1665.04z" class="colorf4caba svgShape"/><path fill="#fff" d="M862.96,1639.42c-2.05-0.6-4.32-0.42-6.33,0.26c-2.57,0.87-4.65,2.76-6.5,4.69
												c-2.04,2.13-3.85,4.47-5.9,6.6c-1.1,1.14-2.16,2.32-3.22,3.5c3.2-8.67,16.52-20.81,22.49-17.64
												c2.99,1.59,3.95,3.84,3.6,6.18C866.32,1641.28,864.88,1639.98,862.96,1639.42z" class="colorfff svgShape" opacity=".25"/><path fill="#d66e85" d="M845.2,1662.02c2.28-0.43,4.37-1.87,6-3.47c1.66-1.63,2.97-3.55,4.43-5.35
												c1.41-1.73,3.44-2.81,5.41-3.78c1.34-0.66,2.69-1.28,3.97-2.04c-1.22,1.52-2.86,2.88-4.69,3.91
												c-6.18,3.44-7.71,9.03-7.71,9.03l-3.77,4.72c0,0-5.41,1.07-7.63-3.33C842.49,1662.14,843.85,1662.27,845.2,1662.02z" class="colord66e85 svgShape" opacity=".25"/><path fill="#fff" d="M861.61,1641.75c0,0-7,4.42-9.08,2.5c-2.07-1.92,4.92-7.17,6.12-7.69
												C859.86,1636.03,860.52,1639.42,861.61,1641.75z" class="colorfff svgShape" opacity=".5"/><g class="color000 svgShape"><path fill="#f4caba" d="M850.28,1682.18c0,0-7.77,1.54-8.51-6.64c-0.74-8.18,16.22-25.27,23.18-21.58
												c6.96,3.69,2.99,11.02-3.19,14.47c-6.18,3.44-7.71,9.03-7.71,9.03L850.28,1682.18z" class="colorf4caba svgShape"/><path fill="#fff" d="M861.86,1655.87c-2.27,0.58-4.33,1.76-6.31,2.99c-1.98,1.24-3.88,2.62-5.76,4.01
												c-1.31,0.98-2.58,2.02-4.01,2.79c5.3-7.27,14.48-14.17,19.15-11.7c0.95,0.5,1.68,1.07,2.25,1.69
												C865.43,1655.36,863.62,1655.42,861.86,1655.87z" class="colorfff svgShape" opacity=".25"/><path fill="#d66e85" d="M842.71,1670.97c0.01,0.49,0.05,0.98,0.13,1.45c0.17,1,0.56,1.99,1.26,2.74
												c0.78,0.83,1.86,1.19,2.98,1.26c1.58,0.1,3.21-0.19,4.59-0.98c1.49-0.86,2.52-2.32,3.81-3.43c1.36-1.16,2.87-2.11,4.42-3
												c1.46-0.85,2.82-1.89,4.02-3.08c2.23-2.21,4.1-5.05,4.48-8.21c1.13,3.71-2.17,8.23-6.64,10.72
												c-6.18,3.44-7.71,9.03-7.71,9.03l-3.77,4.72c0,0-7.77,1.54-8.51-6.64C841.66,1674.21,842.01,1672.64,842.71,1670.97z" class="colord66e85 svgShape" opacity=".25"/><path fill="#fff" d="M863.05,1658.89c0,0-7,4.42-9.08,2.5c-2.07-1.92,4.92-7.17,6.12-7.69
												C861.3,1653.17,861.96,1656.57,863.05,1658.89z" class="colorfff svgShape" opacity=".5"/></g><path fill="#fff" d="M994.24,1648.11c0,0-3.71,4.26-4.34,8.51c-0.62,4.25,0.86,4.83,0.86,4.83
											S994.73,1652.53,994.24,1648.11z" class="colorfff svgShape" opacity=".5"/><g class="color000 svgShape"><path fill="#f4caba" d="M853.07,1698.33c0,0-7.77,1.54-8.51-6.64c-0.74-8.18,16.22-25.27,23.17-21.58
												c6.96,3.69,2.99,11.02-3.19,14.47c-6.18,3.44-7.71,9.03-7.71,9.03L853.07,1698.33z" class="colorf4caba svgShape"/><path fill="#fff" d="M866.71,1671.68c-4.72-1.07-9.4,1.41-12.96,4.33c4.92-4.59,10.63-7.69,14-5.9
												c2.48,1.31,3.56,3.08,3.66,4.98C870.3,1673.43,868.69,1672.13,866.71,1671.68z" class="colorfff svgShape" opacity=".25"/><path fill="#d66e85" d="M847.61,1695.97c1.23,0.02,2.36-0.53,3.28-1.32c1.15-0.98,1.6-2.42,2.32-3.7
												c0.74-1.32,1.98-2.26,3.26-3.03c1.3-0.79,2.67-1.38,4.07-1.97c1.5-0.63,2.98-1.28,4.43-2.01
												c0.82-0.41,1.61-0.86,2.39-1.32c-0.85,0.73-1.79,1.4-2.8,1.96c-6.18,3.44-7.71,9.03-7.71,9.03l-3.77,4.72
												c0,0-4.99,0.98-7.35-2.83C846.32,1695.78,846.95,1695.96,847.61,1695.97z" class="colord66e85 svgShape" opacity=".25"/><path fill="#fff" d="M865.85,1675.03c0,0-7,4.42-9.08,2.5s4.92-7.17,6.12-7.69
												C864.1,1669.31,864.75,1672.71,865.85,1675.03z" class="colorfff svgShape" opacity=".5"/></g><g class="color000 svgShape"><path fill="#f4caba" d="M857,1727.04c0,0-11.58-6.27-12.32-14.45c-0.74-8.18,16.22-25.27,23.18-21.58
												c6.96,3.69,2.99,11.02-3.19,14.47c-6.18,3.44-7.71,9.03-7.71,9.03L857,1727.04z" class="colorf4caba svgShape"/><path fill="#fff" d="M867.93,1692.49c-2.17-1.09-4.68-0.69-6.85,0.17c-2.31,0.91-4.34,2.35-6.44,3.65
												c-0.16,0.1-0.31,0.2-0.47,0.3c4.84-4.43,10.39-7.35,13.68-5.61c2.91,1.54,3.9,3.73,3.63,5.99
												C870.72,1695.19,869.74,1693.4,867.93,1692.49z" class="colorfff svgShape" opacity=".25"/><path fill="#d66e85" d="M850.31,1722.11c0.34-0.59,0.66-1.18,1-1.77c0.36-0.64,0.86-1.19,1.34-1.74
												c0.8-0.91,1.61-1.81,2.12-2.92c0.58-1.26,0.58-2.64,0.88-3.97c0.59-2.62,2.89-4.28,5.14-5.45
												c2.24-1.17,4.86-1.89,6.76-3.62c1.39-1.26,2.28-3.04,3.65-4.32c-0.89,2.73-3.43,5.44-6.52,7.16
												c-6.18,3.44-7.71,9.03-7.71,9.03l0.08,12.59C857.04,1727.1,853.76,1725.35,850.31,1722.11z" class="colord66e85 svgShape" opacity=".25"/><path fill="#fff" d="M865.96,1695.93c0,0-7.01,4.42-9.08,2.5c-2.07-1.92,4.92-7.17,6.12-7.69
												C864.21,1690.21,864.87,1693.61,865.96,1695.93z" class="colorfff svgShape" opacity=".5"/></g><g class="color000 svgShape"><path fill="#60b73c" d="M893.63 1678.59l-1.03-14.66c-.15-2.07-.37-5.22-.94-8.83l14.83 22.8 12.21-.65-2.3-35.31-9.42.37 1.02 15.21c.14 2.06.43 5.7.93 9.27l-15.47-23.95-11.95.47 2.59 35.78L893.63 1678.59zM940.19 1640.29c-11.05.43-17.74 7.75-17.01 19.11.72 11.26 8.25 17.88 19.2 17.29 10.86-.58 17.39-7.86 16.77-18.96C958.51 1646.53 951.14 1639.86 940.19 1640.29zM941.98 1670.04c-5.29.27-8.87-3.67-9.33-11.08-.46-7.49 2.62-11.71 7.94-11.94 5.3-.22 8.84 3.7 9.28 11.14C950.3 1665.53 947.25 1669.77 941.98 1670.04zM903.11 1705.15c-.01-1.9-.07-2.71-.15-3.9l-1-14.55-6.92.39 1.1 15.63c.05.78.11 1.6.1 2.46-.05 2.06-.96 3.31-2.88 3.43-1.96.13-3.42-.75-3.89-4.09l-.16-1.11-6.97.44.12 1.12c.6 5.59 3.85 9.04 11.05 8.55C900.36 1713.07 903.15 1709.65 903.11 1705.15zM906.9 1699.3c.56 8.18 6.13 12.92 14.23 12.38 8.05-.54 12.88-5.93 12.38-14.02-.51-8.16-6-12.92-14.1-12.46C911.26 1685.65 906.34 1691.05 906.9 1699.3zM926.63 1698.07c.34 5.37-1.9 8.5-5.81 8.75-3.92.26-6.57-2.57-6.93-7.96-.36-5.44 1.9-8.55 5.84-8.78C923.65 1689.85 926.29 1692.66 926.63 1698.07zM957.45 1690.14c-.19-3.28-2.69-5.78-6.91-6.05-1.3-.07-1.89-.04-3.26.04l-10.5.6 1.55 25.28 10.15-.68c1.61-.11 2.46-.17 3.73-.4 3.38-.63 7.08-3.2 6.81-7.87-.17-3.05-1.76-5.06-4.99-5.78C956.47 1694.26 957.58 1692.43 957.45 1690.14zM943.77 1689.48l3-.18c.59-.03 1.18-.03 1.67.01 1.26.11 2.08.76 2.16 2.18.09 1.5-.72 2.17-1.93 2.42-.47.1-1.03.17-1.62.21l-2.99.18L943.77 1689.48zM949.9 1704.09c-.48.07-1.06.1-1.65.14l-3.57.23-.32-5.4 3.4-.21c.59-.04 1.18-.07 1.66-.07 1.37.02 2.63.82 2.73 2.49C952.22 1702.92 951.07 1703.94 949.9 1704.09z" class="coloradbcff svgShape"/><polygon fill="#60b73c" points="954.05 1613.75 879.52 1615.87 880.24 1625.77 954.59 1623.36" class="coloradbcff svgShape"/><polygon fill="#60b73c" points="960.07 1719.48 887.4 1724.67 888.08 1734.12 960.6 1728.67" class="coloradbcff svgShape"/><polygon fill="#60b73c" points="888.91 1745.61 889.59 1754.98 923.58 1752.15 922.97 1742.89" class="coloradbcff svgShape"/><polygon fill="#60b73c" points="928.48 1742.45 929.08 1751.69 951.33 1749.83 950.79 1740.67" class="coloradbcff svgShape"/></g><path fill="#f4caba" d="M1043.56,1824.24c2.11,0.31,4.04,0.4,5.55,0.33c0.32-0.02,0.59-0.03,0.84-0.06
								c6.51-0.65,12.96-1.62,18.9-2.74c15.98-2.93,28.38-6.67,28.38-6.67s91.25,24.85,103.53,23.47
								c11.84-6.09,14.11-58.56,14.11-58.56c-6.99-9.26-101.17-22.78-118.73-29.14c-17.59-6.35-39.72-6.01-39.72-6.01
								s-103.15-18.35-104.76-5.92c-1.25,9.61,51.36,20.03,69.14,25.82c0.14,0.05,0.29,0.09,0.44,0.14
								c-0.05,0.01-7.06,4.88-5.17,12.45c0.91,3.7,2.96,5.29,2.96,5.29s-3.03,4.08-3,7.72c0.02,3.66,2.06,9.18,3.76,9.6
								c-0.01,0.06-2.89,3.53-1.35,7.86c1.51,4.32,7.71,7.33,7.71,7.33l0.01-0.04c0.53,0.65,1.06,1.29,1.63,1.86
								C1032.15,1821.37,1038.44,1823.47,1043.56,1824.24z" class="colorf4caba svgShape"/><path fill="#fff" d="M1020.92 1768.92c-.34 1.59-.67 3.18-.58 4.82.07 1.34.25 2.77.74 4.03.41 1.07 1.11 1.83 1.84 2.69.39.46.93 1.01.93 1.64 0 .62-.48 1.29-.73 1.86-.57 1.29-.82 2.68-1.13 4.06-.66 2.89-.95 5.74-.42 8.68.39 2.16 1.02 4.59 2.88 5.94.51.37 1.12.64 1.61 1.03.62.5.38.67.13 1.36-.44 1.2-.45 2.53-.4 3.79.19 5.21 4.02 8.52 8.01 11.25 1.43.98 2.87 1.94 4.31 2.9-3.69-1.18-7.43-3.07-10.34-5.99-.57-.57-1.1-1.21-1.63-1.86l-.01.04c0 0-6.2-3-7.71-7.33-1.53-4.33 1.34-7.8 1.35-7.86-1.7-.42-3.73-5.94-3.76-9.6-.03-3.64 3-7.72 3-7.72s-2.05-1.6-2.96-5.29c-1.83-7.32 4.66-12.1 5.12-12.42C1021.32 1766.26 1021.22 1767.52 1020.92 1768.92zM962.23 1736.88c0 0-.13 7.23-1.77 7.4-1.64.17-8.62-4.1-7.53-5.72C954.03 1736.94 960.62 1735.73 962.23 1736.88z" class="colorfff svgShape" opacity=".2"/></g><g class="color000 svgShape"><path fill="#fff" d="M1101.47,1826.51c0,0,544.36,231.4,530.19-96.17c-15.56-359.62-362.15-515.82-362.15-515.82l130.24,541.1
					l-284.99-6.68L1101.47,1826.51z" class="colorfff svgShape"/></g><g class="color000 svgShape"><path fill="#60b73c" d="M1327.72,1894.34c34.22,4.37,68.52,7.42,102.71,7.53c17.08-0.09,34.15-0.76,50.98-2.96
					c16.83-2.1,33.49-5.44,49.39-10.89c15.93-5.28,31.14-12.66,44.49-22.59c13.37-9.92,24.54-22.58,33.12-36.92
					c8.52-14.4,14.3-30.48,17.8-47.12c3.75-16.63,4.92-33.82,5.45-51.06c1.7,17.18,1.52,34.59-0.69,51.91
					c-2.43,17.26-7.41,34.42-15.85,50.05c-8.28,15.7-20.19,29.52-34.16,40.57c-14.15,10.89-30.32,18.79-47,24.5
					c-33.62,11.1-69.05,13.61-103.68,12.17C1395.54,1908.11,1361.25,1902.45,1327.72,1894.34z" class="coloradbcff svgShape"/></g><g class="color000 svgShape"><path fill="#f4caba" d="M1199.44,1077.04l13.39,132.82c0,0-41.3,61.39-82.59,15.63l1.12-89.29L1199.44,1077.04z" class="colorf4caba svgShape"/><path fill="#33133f" d="M1165.63,1227.19c-8.88-15.1-12.28-38.07,1.47-51.51c5.56-5.44,12.81-8.84,18.17-14.5
						c6.67-7.05,7.87-17.73,6.9-26.98c-1.59-15.11-8-29.83-6.96-44.8l-53.85,46.79l-1.12,89.29c16.13,17.87,32.24,19.37,45.91,14.6
						C1172.12,1236.4,1168.53,1232.13,1165.63,1227.19z" class="color33133f svgShape" opacity=".15"/><path fill="#f4caba" d="M1023.47,940.51c0,0-7.44,213.55,77.38,220.24c84.82,6.7,122.03-82.59,122.03-82.59
						s15.63,9.67,19.35-5.95c3.72-15.62,22.32-43.16,3.72-53.57c-18.6-10.42-24.55,6.7-24.55,6.7l10.42-48.36
						C1231.81,976.97,1025.7,870.56,1023.47,940.51z" class="colorf4caba svgShape"/><path fill="#33133f" d="M1228.85,1028.24c0,0,11.17-6.03,15.63,2.68c4.47,8.71-5.36,41.99-18.54,37.97
						c0,0,16.97-7.37,14.96-27.69C1238.9,1020.86,1231.75,1034.71,1228.85,1028.24z" class="color33133f svgShape" opacity=".05"/><path fill="#432d29" d="M1062.09,905.46c0.51-8.96,0.07-14.8,0.07-14.8c-88.17,7.81-45.76,99.33-45.76,99.33
						c30.61-15.31,40.98-47.67,44.37-71.31c23.69,32.43,81.46,97.54,164.34,99.21l26.79-44.64L1062.09,905.46z" class="color432d29 svgShape"/><path fill="#33133f" d="M1170.59 1074.3c1 5.93-5.46 11.96-14.42 13.47-8.97 1.51-17.04-2.07-18.04-7.99-1-5.93 5.46-11.96 14.42-13.47C1161.52 1064.79 1169.59 1068.37 1170.59 1074.3zM1069.03 1074.86c1 5.93-5.46 11.96-14.42 13.47-8.97 1.51-17.04-2.07-18.04-7.99-1-5.93 5.46-11.96 14.42-13.47C1059.95 1065.35 1068.03 1068.93 1069.03 1074.86z" class="color33133f svgShape" opacity=".05"/><path fill="#432d29" d="M1038.86 1024.28c-1.12 0-2.13-.75-2.43-1.88-.34-1.34.46-2.71 1.8-3.05 21.69-5.6 30.39-19.56 30.47-19.7.72-1.18 2.25-1.56 3.44-.85 1.18.71 1.56 2.25.85 3.43-.39.64-9.73 15.83-33.52 21.97C1039.28 1024.26 1039.07 1024.28 1038.86 1024.28zM1161.14 1018.8c-31.28 0-44.63-15.88-45.2-16.57-.87-1.07-.72-2.64.35-3.52 1.07-.88 2.64-.72 3.52.34.13.15 13.2 15.47 43.4 14.71 1.24-.07 2.53 1.06 2.56 2.45.03 1.39-1.06 2.53-2.45 2.57C1162.59 1018.79 1161.86 1018.8 1161.14 1018.8zM1090.65 1079.26c-.16 0-.32-.01-.48-.05-12.99-2.51-15.27-11.92-15.36-12.32-.25-1.13.29-2.28 1.32-2.8 6.5-3.25 12.28-19.31 13.96-25.23.37-1.33 1.77-2.12 3.09-1.73 1.33.38 2.11 1.76 1.73 3.09-.63 2.23-6.06 20.66-14.57 27.1 1.12 2.08 3.98 5.64 10.77 6.96 1.36.26 2.25 1.58 1.98 2.94C1092.88 1078.43 1091.83 1079.26 1090.65 1079.26z" class="color432d29 svgShape"/><path fill="#33133f" d="M1125.95,1107.31c-26.95,3.52-27.69,6.48-39.75,7.26C1097.03,1125.06,1133.43,1133.77,1125.95,1107.31z" class="color33133f svgShape" opacity=".05"/><path fill="#432d29" d="M1126.2 1106.99c-23.59 3.08-41.42 7.4-41.42 7.4S1125.3 1133.18 1126.2 1106.99zM1058.45 1038.59c-11.67 0-17.71-4.8-18.07-5.09-1.07-.88-1.22-2.46-.35-3.53.88-1.06 2.44-1.22 3.51-.36l0 0c.44.35 10.98 8.46 32.39.49 1.31-.48 2.74.18 3.22 1.48.48 1.3-.18 2.74-1.48 3.22C1070.13 1037.61 1063.72 1038.59 1058.45 1038.59z" class="color432d29 svgShape"/><path fill="#432d29" d="M1040.74 1040.67c-.48 0-.94-.28-1.14-.74-.28-.63 0-1.37.64-1.65l9.27-4.13c.63-.27 1.37 0 1.65.64.28.63 0 1.37-.64 1.65l-9.27 4.13C1041.09 1040.64 1040.91 1040.67 1040.74 1040.67zM1049.11 1045.44c-.34 0-.69-.14-.93-.42-.46-.52-.42-1.31.1-1.77l10.29-9.22c.51-.47 1.3-.42 1.77.1.46.52.42 1.31-.1 1.77l-10.29 9.22C1049.71 1045.34 1049.41 1045.44 1049.11 1045.44zM1065.87 1045.47c-.15 0-.3-.03-.45-.08-.65-.24-.97-.97-.73-1.62l4.06-10.67c.25-.65.98-.97 1.62-.73.65.25.97.97.72 1.62l-4.06 10.67C1066.85 1045.16 1066.37 1045.47 1065.87 1045.47z" class="color432d29 svgShape"/><g class="color000 svgShape"><path fill="#432d29" d="M1134.39,1038.59c-11.67,0-17.71-4.8-18.07-5.09c-1.07-0.88-1.22-2.46-0.35-3.53
								c0.88-1.06,2.44-1.22,3.52-0.36l0,0c0.44,0.35,10.99,8.46,32.39,0.49c1.3-0.48,2.74,0.18,3.22,1.48
								c0.48,1.3-0.18,2.74-1.48,3.22C1146.07,1037.61,1139.65,1038.59,1134.39,1038.59z" class="color432d29 svgShape"/><path fill="#432d29" d="M1116.68 1040.67c-.48 0-.94-.28-1.15-.74-.28-.63 0-1.37.64-1.65l9.27-4.13c.62-.27 1.37 0 1.65.64.28.63 0 1.37-.64 1.65l-9.27 4.13C1117.03 1040.64 1116.85 1040.67 1116.68 1040.67zM1125.05 1045.44c-.34 0-.69-.14-.93-.42-.46-.52-.42-1.31.1-1.77l10.29-9.22c.51-.47 1.3-.42 1.77.1.46.52.42 1.31-.1 1.77l-10.29 9.22C1125.64 1045.34 1125.34 1045.44 1125.05 1045.44zM1141.8 1045.47c-.15 0-.3-.03-.45-.08-.65-.24-.97-.97-.72-1.62l4.06-10.67c.24-.65.98-.97 1.62-.73.65.25.97.97.73 1.62l-4.06 10.67C1142.79 1045.16 1142.31 1045.47 1141.8 1045.47z" class="color432d29 svgShape"/></g><path fill="#fff" d="M1037.73,1083.24l37.07-16.35l99.69-0.38l50.61-48.63l-2.34,4.67l-42.45,50.67c0,0,32.51,69.14-59.01,92.68
					C1070.88,1178.88,1045.54,1121.09,1037.73,1083.24z" class="colorfff svgShape"/><path fill="#e1e6fd" d="M1079.32,1074.02l36.1,87.09c0,0,85.88-12.57,58.49-85.48L1079.32,1074.02z" class="colore1e6fd svgShape"/></g><path fill="#fff" d="M1598.7,1737.18c0.44,2.86,0.61,5.75,0.7,8.64c0.11,2.9,0.02,5.79-0.11,8.69
				c-0.32,5.79-1.08,11.58-2.24,17.29c-2.37,11.42-6.36,22.64-12.37,32.83c-5.92,10.22-13.9,19.35-23.4,26.36
				c-0.59,0.44-1.16,0.91-1.77,1.32l-1.85,1.2c-1.25,0.78-2.44,1.64-3.73,2.35c-2.59,1.4-5.12,2.86-7.83,3.97
				c-5.3,2.45-10.92,4.07-16.54,5.29c1.28-0.69,2.56-1.32,3.83-1.98c1.28-0.63,2.57-1.23,3.79-1.99c1.23-0.72,2.47-1.41,3.7-2.1
				c1.24-0.68,2.39-1.51,3.59-2.25c2.42-1.44,4.64-3.17,6.92-4.77c1.12-0.82,2.18-1.75,3.27-2.61l1.62-1.31
				c0.53-0.45,1.03-0.93,1.55-1.39c4.2-3.63,7.93-7.74,11.43-11.99c0.84-1.1,1.73-2.14,2.56-3.25l2.4-3.37
				c0.81-1.11,1.51-2.31,2.28-3.46c0.37-0.58,0.76-1.15,1.11-1.75l1.04-1.8c5.63-9.52,9.84-19.9,13.1-30.64
				C1594.96,1759.7,1597.3,1748.6,1598.7,1737.18z" class="color9199fb svgShape"/><g class="color000 svgShape"><path fill="#432d29" d="M1164.87,2176.61l258.07-60.64c0,0,76.65,12.92,136.7-7.95l-260.62,68.6H1164.87z" class="color432d29 svgShape"/><polygon fill="#e1e6fd" points="1430.23 2003.19 1172.79 2038.92 1296.24 2319.23 1573.97 2245.17" class="colore1e6fd svgShape"/><polygon fill="#fff" points="1331.45 2110.92 1250.42 2125.49 1245.05 2113.85 1325.78 2099.76" class="color9199fb svgShape"/><polygon fill="#fff" points="1385.13 2101.26 1337.9 2109.76 1332.21 2098.64 1379.29 2090.42" class="color9199fb svgShape"/><polygon fill="#fff" points="1456.78 2088.38 1390.36 2100.32 1384.5 2089.51 1450.72 2077.95" class="color9199fb svgShape"/><polygon fill="#fff" points="1322.26 2137.07 1261.13 2148.71 1255.63 2136.79 1316.53 2125.52" class="color9199fb svgShape"/><polygon fill="#fff" points="1363.34 2129.24 1327.17 2136.14 1321.42 2124.61 1357.47 2117.94" class="color9199fb svgShape"/><polygon fill="#fff" points="1418.9 2118.66 1367.37 2128.48 1361.48 2117.2 1412.85 2107.7" class="color9199fb svgShape"/><polygon fill="#fff" points="1428.08 2162.85 1281.91 2193.76 1276.15 2181.27 1421.8 2151.32" class="color9199fb svgShape"/><polygon fill="#fff" points="1384.6 2215.61 1300.9 2234.94 1294.89 2221.92 1378.29 2203.18" class="color9199fb svgShape"/><polygon fill="#fff" points="1439.88 2202.85 1391.25 2214.08 1384.91 2201.69 1433.38 2190.8" class="color9199fb svgShape"/><polygon fill="#fff" points="1513.42 2185.86 1445.25 2201.6 1438.74 2189.59 1506.71 2174.32" class="color9199fb svgShape"/><polygon fill="#fff" points="1376.06 2245.56 1312.88 2260.93 1306.72 2247.57 1369.67 2232.66" class="color9199fb svgShape"/><polygon fill="#fff" points="1418.41 2235.25 1381.13 2244.32 1374.72 2231.46 1411.87 2222.66" class="color9199fb svgShape"/><polygon fill="#fff" points="1475.56 2221.34 1422.56 2234.24 1416.01 2221.68 1468.84 2209.16" class="color9199fb svgShape"/><g class="color000 svgShape"><path fill="#fff" d="M1322.53 2054.42l.26.39-10.34 1.6-.32-.38c-2.39-2.84-5.7-3.84-9.93-3.2-5 .76-7.33 4.25-4.29 10.3 3.58 7.11 9.02 8.86 13.7 8.1 4.07-.66 5.79-2.83 5.08-6.06l-.09-.43 10.37-1.65.15.41c2.51 6.88-3.03 11.55-13.1 13.2-10.87 1.78-22.17-1.76-26.95-11.4-4.85-9.78 1.69-16.15 12.57-17.79C1310.98 2045.82 1318.92 2049.12 1322.53 2054.42zM1349.82 2070.24l-28.59-25.35 11.09-1.67 20.86 20.41-2.38-23.18 10.53-1.58.88 29.36L1349.82 2070.24z" class="color9199fb svgShape"/></g><path fill="#fff" d="M1277.94,2221.34l21.08-44.74l260.62-68.6c0,0,108.59,213.51,58.77,276.15
			c-49.82,62.63-127.76,72.67-319.39,128.04C1299.02,2512.19,1247.28,2258.63,1277.94,2221.34z" class="color9199fb svgShape"/><path fill="#2a3a8b" d="M1542.9 2236.76c11.3-7.79 11.1-20.42 11.41-31.17.2-6.81.61-13.87-1.99-20.46-1.97-4.99-5.54-9.48-8.61-14.13-.74 8.7.92 17.47-3.81 25.89-4.68 8.33-12.18 16.81-20.59 23.12-13.55 10.16-31.77 15.76-50.31 18.15 8.58 1.82 18.03 2.22 26.26 2.8C1510.47 2242.03 1530.26 2245.47 1542.9 2236.76zM1596.56 2225.83c3.09 15.87 8.92 31.32 12.12 47.17 2.54 12.62 3.77 26.32-2.48 38.43-6.43 12.45-21.19 22.14-37.83 25.48-10.33 2.07-23.73 1.98-30.47 9.52-7.07 7.91-5.02 19.15-4.8 28.2.35 13.97 1.33 29.4-4.38 42.86-5.27 12.43-18.12 20.55-32.49 26.57-10.82 4.54-21.78 8.16-31.49 14.19-5.79 3.59-11.01 7.66-15.77 12.04 87.99-25.01 135.31-43.24 169.44-86.14 28.8-36.21 4.66-122.84-20.83-189.5C1593.61 2204.56 1594.56 2215.6 1596.56 2225.83z" class="color2a3a8b svgShape" opacity=".1"/><path fill="#60b73c" d="M1299.02,2512.19c-23.71,18.45-113.07,20.3-134.14,0c-67.76-65.26,0-335.59,0-335.59h134.14
			C1299.02,2176.61,1375.25,2452.87,1299.02,2512.19z" class="coloradbcff svgShape"/><g class="color000 svgShape"><path fill="#e1e6fd" d="M1466.46,2244.95c-30.6,0-63.11-9.71-84.98-26.86c-5.41-4.24-6.36-12.06-2.12-17.47
				c4.25-5.41,12.08-6.35,17.46-2.12c27.44,21.5,71.37,25.85,98.01,17.65c22.73-7,31.11-21.47,32.02-55.29
				c0.18-6.87,5.84-12.3,12.77-12.1c6.87,0.19,12.29,5.9,12.1,12.77c-0.85,31.48-7.4,65.4-49.57,78.39
				C1491.15,2243.33,1478.96,2244.95,1466.46,2244.95z" class="colore1e6fd svgShape"/></g></g><g class="color000 svgShape"><path fill="#e1e6fd" d="M1941.9,601.92c0,70.04-32.34,132.49-82.85,173.29c-38.25,30.98-86.96,49.51-139.95,49.51
			c-51.32,0-98.59-17.35-136.28-46.59c-52.62-40.74-86.52-104.5-86.52-176.21c0-123.03,99.77-222.8,222.8-222.8
			C1842.14,379.12,1941.9,478.88,1941.9,601.92z" class="colore1e6fd svgShape"/><path fill="#432d29" d="M1595.01,733.17c-0.28,5.74-0.46,11.37-0.53,16.89c4.39,4.65,8.76,9.32,13.18,13.94
					c17.2,17.99,35.84,35.92,59.26,45.44c25.74,10.47,52.55,0.8,79.87,1.08c133.47,1.38,152.51-108.87,145.77-152.13
					c-7.97-50.81-48.51-85.58-48.94-112.69c-0.43-27.1-23.87-90.4-78.54-118.35c-45.62-23.4-66.39-2.83-114.48,54.09
					c-17.43,20.66-30.58,30.35-41.84,37.16c-19.83,12.04-33.97,15.28-55.77,53.96C1518.82,633.22,1598.99,651.7,1595.01,733.17z" class="color432d29 svgShape"/><path fill="#fff" d="M1859.05,775.21c-38.25,30.98-86.96,49.51-139.95,49.51c-51.32,0-98.59-17.35-136.28-46.59
									c23.26-54.18,76.63-91.99,138.77-91.99C1782.55,686.14,1835.17,722.58,1859.05,775.21z" class="colorfff svgShape"/><path fill="#60b73c" d="M1759.56,697.63c0,9.46-17.28,17.13-38.59,17.13c-21.31,0-38.58-7.67-38.58-17.13
									s17.28-17.13,38.58-17.13C1742.29,680.5,1759.56,688.17,1759.56,697.63z" class="coloradbcff svgShape"/><path fill="#edb29f" d="M1747.7,692.18c0,0-9.86,14.82-26.9,14.82c-17.04,0-29.16-14.38-29.16-14.38
													s0.66-15.26,1.19-28.06c0.31-8.51,0.6-15.95,0.6-17.2h53.84l0.22,21.97L1747.7,692.18z" class="coloredb29f svgShape"/><path fill="#513f3c" d="M1747.48,669.33c-8.48,7.06-17.64,11.65-24.7,11.65c-8.57,0-20.18-6.72-29.95-16.42
													c0.31-8.51,0.6-15.95,0.6-17.2h53.84L1747.48,669.33z" class="color513f3c svgShape" opacity=".1"/><path fill="#f4caba" d="M1808.12,562.96c-5.72-11.15-16.11-7.96-21.99-4.91c-0.26-23.88-3.09-42.11-3.09-42.11
													c-0.2-1.28-0.61-2.5-1.21-3.64c-11.88-21.46-98.66-22.27-116.27-2.5c-1.69,1.82-2.7,3.91-3.04,6.14
													c0,0-2.65,18.32-2.71,42.29c-5.82-3.1-16.5-6.64-22.33,4.73c-8.14,15.87,10.16,39.49,25.61,38.84
													c5.99,35.06,21.77,67.52,59.69,67.52c38.65,0,54.5-32.45,60.34-67.49C1798.44,601.85,1816.15,578.62,1808.12,562.96z" class="colorf4caba svgShape"/><path fill="#432d29" d="M1682.58 505.74c0 0 51.28 26.52 104.41 15.84 53.13-10.68-76.04-57.33-107.23-41.86-31.18 15.47-26.02 51.34-26.02 51.34S1679.3 526.5 1682.58 505.74zM1719.83 596.02c-2.11-4.76.99-10.17 1.13-10.4.62-1.06 1.98-1.42 3.04-.8 1.07.61 1.42 1.97.81 3.04-.6 1.05-1.85 4.23-.85 6.47.79 1.62 2.82 2.67 6.05 3.15 1.21.18 2.06 1.3 1.88 2.52-.18 1.22-1.31 2.06-2.53 1.88-4.79-.7-7.96-2.59-9.42-5.63C1719.91 596.18 1719.87 596.1 1719.83 596.02zM1761.54 571.24c0 3.89-2.68 7.04-5.96 7.04-3.29 0-5.96-3.15-5.96-7.04 0-3.89 2.68-7.05 5.96-7.05.92 0 1.79.24 2.57.71-1.16.35-2.03 1.6-2.03 3.09 0 1.76 1.22 3.2 2.71 3.2 1.09 0 2.05-.78 2.47-1.89C1761.45 569.92 1761.54 570.56 1761.54 571.24zM1700.27 570.34c0 3.89-2.68 7.04-5.96 7.04-3.28 0-5.96-3.15-5.96-7.04 0-3.89 2.68-7.05 5.96-7.05.92 0 1.79.24 2.57.71-1.16.35-2.03 1.6-2.03 3.09 0 1.76 1.22 3.2 2.71 3.2 1.09 0 2.05-.78 2.47-1.89C1700.19 569.02 1700.27 569.66 1700.27 570.34z" class="color432d29 svgShape"/><g class="color000 svgShape"><path fill="#432d29" d="M1803.38,576.76c0.43,0,0.84-0.26,1.01-0.69c3.7-9.46-5.77-15.06-5.86-15.11
											c-0.52-0.31-1.18-0.12-1.48,0.4c-0.3,0.52-0.12,1.18,0.39,1.48c0.33,0.19,7.95,4.74,4.93,12.44
											c-0.22,0.56,0.06,1.19,0.61,1.41C1803.11,576.73,1803.24,576.76,1803.38,576.76z" class="color432d29 svgShape"/></g><g class="color000 svgShape"><path fill="#432d29" d="M1640.84,576.85c-0.43,0-0.84-0.26-1.01-0.69c-3.7-9.46,5.77-15.06,5.86-15.11
											c0.52-0.31,1.18-0.12,1.48,0.4c0.3,0.52,0.12,1.18-0.39,1.48c-0.33,0.19-7.95,4.74-4.93,12.44
											c0.22,0.56-0.06,1.19-0.61,1.41C1641.11,576.83,1640.98,576.85,1640.84,576.85z" class="color432d29 svgShape"/></g><path fill="#432d29" d="M1712.33 550.35c.78-2.49-14.51-9.85-27.09-2.55-12.58 7.3-2.44 2.5 11.03 3.83C1709.76 552.96 1711.06 554.41 1712.33 550.35zM1735.39 550.35c-.78-2.49 14.51-9.85 27.09-2.55 12.58 7.3 2.44 2.5-11.03 3.83C1737.97 552.96 1736.66 554.41 1735.39 550.35zM1705.56 623.19c1.56 0 39.91 0 39.91 0s-2.92 15.1-21.97 15.66C1709.19 639.27 1705.56 623.19 1705.56 623.19z" class="color432d29 svgShape"/><g class="color000 svgShape"><path fill="#e1e6fd" d="M1442.1 939.31c0 2.61 0 4.18-.22 7.23-.6 8.65-6.71 16.41-22.6 16.41-15.89 0-22.01-7.76-22.6-16.41-.22-3.06-.22-4.63-.22-7.23v-28.87h13.43v31.33c0 1.42 0 2.16.07 3.06.37 5.37 3.43 8.28 9.32 8.28 5.89 0 8.95-2.91 9.32-8.28.08-.9.08-1.64.08-3.06v-31.33h13.42V939.31zM1482.64 961.92l-18.73-34.02c.45 5.22.45 9.77.45 12.76v21.26h-13.43v-51.47h16.72l19.54 35.51c-.37-5.22-.44-10.52-.44-13.5v-22.01h13.42v51.47H1482.64zM1549.66 961.92h-39.46v-51.47h38.72v10.44h-25.29v9.99h23.8v10.44h-23.8v10.14h26.03V961.92zM1616.75 961.92h-13.42v-21.63c0-4.48 0-11.12.15-16.34-.89 5.22-2.39 11.79-3.58 16.34l-5.67 21.63h-13.8l-5.74-21.63c-1.2-4.48-2.69-11.12-3.51-16.34.15 5.22.15 11.86.15 16.34v21.63h-13.43v-51.47h20.97l8.72 38.42 8.73-38.42h20.44V961.92zM1668.49 927.15c0 10.14-6.79 15.44-14.25 16.34-2.76.3-4.85.37-8.05.37h-5.97v18.05h-13.43v-51.47h19.4c3.21 0 5.3.07 8.05.37C1661.7 911.71 1668.49 917.01 1668.49 927.15zM1654.46 927.15c0-3.88-2.02-5.9-5.45-6.19-.97-.07-2.16-.07-3.58-.07h-5.22v12.53h5.22c1.42 0 2.61 0 3.58-.07C1652.44 933.04 1654.46 931.03 1654.46 927.15zM1714.31 961.92h-39.46v-51.47h13.42v40.14h26.03V961.92zM1769.54 936.18c0 16.49-10.3 26.78-26.34 26.78-16.04 0-26.33-10.3-26.33-26.78 0-16.56 10.3-26.78 26.33-26.78C1759.25 909.4 1769.54 919.62 1769.54 936.18zM1755.82 936.18c0-10.97-4.85-16.94-12.61-16.94-7.76 0-12.6 5.97-12.6 16.94 0 10.89 4.85 16.94 12.6 16.94C1750.97 953.11 1755.82 947.07 1755.82 936.18zM1801.13 961.92h-13.43v-19.7l-18.13-31.78h15.07l10.14 20.36 9.77-20.36h14.69l-18.13 31.78V961.92zM1882.84 961.92h-13.42v-21.63c0-4.48 0-11.12.15-16.34-.89 5.22-2.39 11.79-3.58 16.34l-5.67 21.63h-13.8l-5.74-21.63c-1.2-4.48-2.68-11.12-3.5-16.34.15 5.22.15 11.86.15 16.34v21.63h-13.42v-51.47h20.96l8.72 38.42 8.73-38.42h20.44V961.92zM1932.33 961.92h-39.46v-51.47h38.72v10.44h-25.29v9.99h23.8v10.44h-23.8v10.14h26.03V961.92zM1972.27 961.92l-18.73-34.02c.45 5.22.45 9.77.45 12.76v21.26h-13.43v-51.47h16.72l19.54 35.51c-.37-5.22-.44-10.52-.44-13.5v-22.01h13.42v51.47H1972.27zM2025.05 920.89v41.03h-13.43v-41.03h-16.71v-10.44h46.85v10.44H2025.05z" class="colore1e6fd svgShape"/></g></g><g class="color000 svgShape"><path fill="#432d29" d="M2285.79,553.01v48.9h-288.87c0,0-39.46-2.63-56.94-29.32l-46.26-0.5l92.78-43.92L2285.79,553.01z" class="color432d29 svgShape" opacity=".2"/><path fill="#fff" d="M1893.72,572.09l19.4-47.01c-3.52-9.17-5.47-19.12-5.47-29.53l0,0c0-45.53,36.91-82.44,82.44-82.44h369.73
			c45.53,0,82.44,36.91,82.44,82.44l0,0c0,45.53-36.91,82.44-82.44,82.44H1990.1c-18.1,0-34.82-5.85-48.42-15.73L1893.72,572.09z" class="color9199fb svgShape"/><path fill="#fff" d="M2025.37 528.18h-18.02v-27.06h-20.84v27.06h-18.02V461.8h18.02v24.61h20.84V461.8h18.02V528.18zM2039.71 528.18V461.8h18.02v66.38H2039.71zM2090.02 504.02v24.15h-17.93V461.8h21.75c18.04 0 27.06 6.54 27.06 19.61 0 7.69-3.75 13.64-11.26 17.84l19.34 28.92h-20.34l-14.07-24.15H2090.02zM2090.02 490.54h3.36c6.27 0 9.4-2.77 9.4-8.31 0-4.57-3.07-6.86-9.22-6.86h-3.54V490.54zM2174.42 528.18h-39.41V461.8h39.41v14.39h-21.48v10.44h19.89v14.39h-19.89v12.53h21.48V528.18zM2239.12 528.18l-13.57-47.81h-.41c.64 8.14.95 14.47.95 18.98v28.83h-15.89V461.8h23.88l13.85 47.13h.36l13.58-47.13h23.93v66.38h-16.48v-29.1c0-1.51.02-3.19.07-5.04.04-1.85.25-6.37.61-13.57h-.41l-13.39 47.72H2239.12zM2339.5 528.18h-39.41V461.8h39.41v14.39h-21.47v10.44h19.89v14.39h-19.89v12.53h21.47V528.18zM2364.97 504.75h-14.98l-2.32-42.95h19.61L2364.97 504.75zM2347.86 520.64c0-2.75.82-4.9 2.45-6.42 1.63-1.53 4.01-2.29 7.13-2.29 3.09 0 5.43.76 7.02 2.29 1.59 1.53 2.38 3.67 2.38 6.42 0 2.72-.83 4.85-2.47 6.38-1.65 1.53-3.96 2.29-6.92 2.29-3 0-5.34-.76-7.04-2.29C2348.7 525.49 2347.86 523.36 2347.86 520.64z" class="colorfff svgShape"/></g><g class="color000 svgShape"><circle cx="901.63" cy="407.16" r="66.38" fill="#f1f2ff" class="colorf1f2ff svgShape" transform="rotate(-22.5 901.586 407.15)"/><path fill="#f1f2ff" d="M985.14 336.15c0 4.73-3.84 8.57-8.57 8.57-4.73 0-8.57-3.84-8.57-8.57 0-4.73 3.84-8.57 8.57-8.57C981.31 327.58 985.14 331.41 985.14 336.15zM849.35 324.2c0 4.73-3.84 8.57-8.57 8.57-4.73 0-8.57-3.84-8.57-8.57 0-4.73 3.84-8.57 8.57-8.57C845.52 315.63 849.35 319.47 849.35 324.2zM924.42 504.8c0 5.09-4.12 9.21-9.21 9.21-5.09 0-9.21-4.12-9.21-9.21 0-5.09 4.12-9.21 9.21-9.21C920.3 495.59 924.42 499.72 924.42 504.8zM916.83 315.63c0 7.28-5.9 13.19-13.19 13.19-7.28 0-13.19-5.9-13.19-13.19 0-7.28 5.9-13.19 13.19-13.19C910.93 302.45 916.83 308.35 916.83 315.63z" class="colorf1f2ff svgShape"/><path fill="#f1f2ff" d="M904.47 315.63c1.61 1.13 2.69 2.26 3.55 3.39.94 1.13 1.55 2.26 2.03 3.39.83 2.26 1.53 4.52.46 6.78-1.07 2.26-3.7 4.52-4.21 6.78-.57 2.26.31 4.52 1.86 6.78 1.59 2.26 2.86 4.52 3.27 6.78.62 2.26 1.28 4.52 1.02 6.78-.28 2.26-1.05 4.52-2.31 6.78-1.22 2.26-2.98 4.52-5.65 6.78h-1.64c-2.67-2.26-4.44-4.52-5.65-6.78-1.27-2.26-2.03-4.52-2.31-6.78-.27-2.26.39-4.52 1.02-6.78.41-2.26 1.68-4.52 3.27-6.78 1.54-2.26 2.43-4.52 1.86-6.78-.51-2.26-3.14-4.52-4.21-6.78-1.08-2.26-.38-4.52.45-6.78.48-1.13 1.09-2.26 2.03-3.39.86-1.13 1.94-2.26 3.55-3.39H904.47zM997.09 403.55c-7.28 0-13.19-5.9-13.19-13.19 0-7.28 5.9-13.19 13.19-13.19s13.19 5.9 13.19 13.19C1010.27 397.64 1004.37 403.55 997.09 403.55z" class="colorf1f2ff svgShape"/><path fill="#f1f2ff" d="M997.09 391.18c-1.13 1.61-2.26 2.69-3.39 3.55-1.13.94-2.26 1.55-3.39 2.03-2.26.83-4.52 1.53-6.78.46-2.26-1.07-4.52-3.7-6.78-4.21-2.26-.57-4.52.31-6.78 1.86-2.26 1.59-4.52 2.86-6.78 3.27-2.26.62-4.52 1.28-6.78 1.02-2.26-.28-4.52-1.05-6.78-2.31-2.26-1.22-4.52-2.98-6.78-5.65v-1.64c2.26-2.67 4.52-4.44 6.78-5.65 2.26-1.27 4.52-2.03 6.78-2.31 2.26-.27 4.52.39 6.78 1.02 2.26.41 4.52 1.68 6.78 3.27 2.26 1.54 4.52 2.43 6.78 1.86 2.26-.51 4.52-3.14 6.78-4.21 2.26-1.08 4.52-.38 6.78.45 1.13.48 2.26 1.09 3.39 2.03 1.13.86 2.26 1.94 3.39 3.55V391.18zM813.68 389.64c7.28 0 13.19 5.9 13.19 13.19 0 7.28-5.9 13.19-13.19 13.19-7.28 0-13.19-5.9-13.19-13.19C800.49 395.54 806.39 389.64 813.68 389.64z" class="colorf1f2ff svgShape"/><path fill="#f1f2ff" d="M807.08 402c1.13-1.61 2.26-2.69 3.39-3.55 1.13-.94 2.26-1.55 3.39-2.03 2.26-.83 4.52-1.53 6.78-.45 2.26 1.07 4.52 3.7 6.78 4.21 2.26.57 4.52-.31 6.78-1.86 2.26-1.59 4.52-2.86 6.78-3.27 2.26-.62 4.52-1.28 6.78-1.02 2.26.28 4.52 1.05 6.78 2.31 2.26 1.22 4.52 2.98 6.78 5.65v1.64c-2.26 2.67-4.52 4.44-6.78 5.65-2.26 1.27-4.52 2.03-6.78 2.31-2.26.27-4.52-.39-6.78-1.02-2.26-.41-4.52-1.68-6.78-3.27-2.26-1.54-4.52-2.43-6.78-1.86-2.26.51-4.52 3.14-6.78 4.21-2.26 1.08-4.52.38-6.78-.45-1.13-.48-2.26-1.09-3.39-2.03-1.13-.86-2.26-1.94-3.39-3.55V402zM820.17 356.39c1.76-.89 3.26-1.31 4.66-1.55 1.44-.3 2.72-.31 3.94-.2 2.39.32 4.71.77 6.2 2.78 1.49 2.01 2.25 5.39 4.01 6.9 1.72 1.57 4.13 1.85 6.85 1.54 2.74-.35 5.33-.4 7.52.3 2.29.51 4.59.99 6.46 2.29 1.86 1.31 3.5 3.05 4.9 5.22 1.42 2.14 2.59 4.75 3.33 8.17l-.77 1.45c-3.25 1.3-6.07 1.79-8.64 1.81-2.59.06-4.94-.33-7.07-1.14-2.12-.82-3.8-2.47-5.51-4.08-1.8-1.43-3.2-3.6-4.45-6.07-1.27-2.42-2.85-4.27-5.11-4.82-2.23-.61-5.46.65-7.96.54-2.5-.11-4.17-1.79-5.77-3.58-.77-.95-1.48-2.02-2.04-3.38-.59-1.29-1.08-2.77-1.32-4.73L820.17 356.39zM985.04 438.5c-1.27.65-2.36.95-3.37 1.12-1.04.22-1.97.22-2.85.14-1.73-.24-3.41-.56-4.48-2.01-1.08-1.45-1.63-3.9-2.9-4.99-1.25-1.13-2.99-1.34-4.96-1.12-1.98.25-3.86.29-5.44-.21-1.65-.37-3.32-.71-4.67-1.65-1.35-.94-2.53-2.2-3.54-3.78-1.03-1.54-1.87-3.44-2.41-5.91l.56-1.05c2.35-.94 4.39-1.3 6.25-1.31 1.87-.04 3.58.24 5.12.83 1.53.6 2.75 1.79 3.98 2.95 1.3 1.03 2.32 2.61 3.22 4.39.92 1.75 2.06 3.09 3.7 3.49 1.62.44 3.95-.47 5.76-.39 1.81.08 3.02 1.29 4.17 2.59.56.69 1.07 1.46 1.48 2.45.43.94.78 2.01.96 3.42L985.04 438.5zM950.31 331.03c.89 1.76 1.31 3.26 1.55 4.66.3 1.44.31 2.72.2 3.94-.32 2.39-.77 4.71-2.78 6.2-2 1.49-5.39 2.25-6.9 4-1.57 1.72-1.85 4.13-1.54 6.85.35 2.74.4 5.33-.3 7.52-.51 2.29-.99 4.59-2.29 6.46-1.31 1.86-3.05 3.5-5.22 4.9-2.13 1.42-4.75 2.59-8.17 3.33l-1.45-.77c-1.3-3.25-1.79-6.07-1.81-8.64-.06-2.59.33-4.94 1.14-7.07.82-2.12 2.47-3.8 4.08-5.51 1.43-1.8 3.6-3.2 6.07-4.45 2.42-1.27 4.27-2.85 4.82-5.11.61-2.23-.65-5.46-.54-7.96.11-2.5 1.79-4.17 3.58-5.77.95-.77 2.02-1.48 3.38-2.04 1.29-.59 2.77-1.08 4.73-1.32L950.31 331.03z" class="colorf1f2ff svgShape"/><g class="color000 svgShape"><path fill="#f1f2ff" d="M951.12,488.88c-4.48-5.74-3.45-14.03,2.29-18.51c5.74-4.48,14.03-3.45,18.51,2.29
				c4.48,5.74,3.45,14.03-2.29,18.51C963.89,495.65,955.6,494.63,951.12,488.88z" class="colorf1f2ff svgShape"/><path fill="#f1f2ff" d="M960.87,481.28c-1.97,0.1-3.51-0.13-4.89-0.49c-1.44-0.31-2.61-0.83-3.68-1.43
				c-2.05-1.27-3.99-2.62-4.53-5.07c-0.55-2.44,0.14-5.84-0.85-7.93c-0.94-2.13-3.02-3.37-5.63-4.2c-2.65-0.8-5.03-1.81-6.75-3.33
				c-1.88-1.4-3.79-2.77-4.97-4.72c-1.17-1.95-1.95-4.21-2.34-6.77c-0.43-2.53-0.43-5.4,0.29-8.82l1.3-1.01
				c3.5,0.14,6.28,0.84,8.62,1.87c2.39,1,4.38,2.31,5.99,3.92c1.6,1.62,2.47,3.8,3.37,5.97c1.06,2.04,1.46,4.59,1.59,7.35
				c0.17,2.73,0.86,5.06,2.7,6.49c1.79,1.47,5.26,1.63,7.49,2.75c2.24,1.12,3.08,3.33,3.81,5.62c0.32,1.18,0.53,2.45,0.48,3.92
				c0.01,1.42-0.14,2.97-0.72,4.86L960.87,481.28z" class="colorf1f2ff svgShape"/></g><g class="color000 svgShape"><path fill="#f1f2ff" d="M825.68,466.73c5.95-8.03,17.28-9.72,25.3-3.77c8.03,5.95,9.72,17.28,3.77,25.3
				c-5.95,8.03-17.28,9.72-25.3,3.77C821.42,486.09,819.74,474.76,825.68,466.73z" class="colorf1f2ff svgShape"/><path fill="#e1e6fd" d="M852.48 379.66c4.25-5.74 12.36-6.95 18.1-2.7 5.74 4.25 6.95 12.36 2.7 18.1s-12.36 6.95-18.1 2.7C849.43 393.51 848.23 385.41 852.48 379.66zM895.19 427.95c2.63-3.56 7.65-4.3 11.21-1.67 3.56 2.63 4.3 7.65 1.67 11.21-2.63 3.56-7.65 4.3-11.21 1.67C893.3 436.52 892.55 431.51 895.19 427.95zM921.69 397.17c4.39-5.93 12.76-7.18 18.7-2.79 5.93 4.39 7.18 12.76 2.79 18.7-4.39 5.93-12.76 7.18-18.7 2.79C918.55 411.47 917.3 403.1 921.69 397.17zM901.66 373.24c2.17-2.94 6.32-3.55 9.25-1.38 2.94 2.17 3.55 6.32 1.38 9.25s-6.32 3.55-9.25 1.38C900.11 380.31 899.49 376.17 901.66 373.24z" class="colore1e6fd svgShape"/><path fill="#f1f2ff" d="M835.37,482.29c-0.86-2.56-1.12-4.69-1.15-6.64c-0.11-2.01,0.14-3.75,0.53-5.39c0.93-3.17,2-6.23,5.03-7.84
				c3.02-1.62,7.77-1.96,10.18-4.03c2.48-2.02,3.35-5.23,3.49-8.99c0.09-3.79,0.54-7.31,1.93-10.14c1.16-3,2.27-6.03,4.41-8.3
				c2.15-2.26,4.84-4.13,8.08-5.58c3.19-1.5,6.97-2.55,11.76-2.86l1.81,1.34c1.1,4.67,1.2,8.6,0.7,12.09
				c-0.45,3.52-1.45,6.64-2.98,9.36c-1.55,2.71-4.12,4.66-6.65,6.64c-2.3,2.15-5.54,3.61-9.14,4.8c-3.55,1.23-6.37,3-7.58,5.96
				c-1.28,2.91-0.22,7.55-0.89,10.91c-0.66,3.37-3.27,5.29-6.03,7.1c-1.45,0.85-3.04,1.6-5,2.08c-1.87,0.54-3.98,0.91-6.68,0.83
				L835.37,482.29z" class="colorf1f2ff svgShape"/></g></g><g class="color000 svgShape"><path fill="#60b73c" d="M2604.34 844.21c0 4.47-3.62 8.1-8.1 8.1-4.47 0-8.1-3.62-8.1-8.1 0-4.47 3.62-8.1 8.1-8.1C2600.72 836.11 2604.34 839.74 2604.34 844.21zM2476.07 832.93c0 4.47-3.62 8.1-8.1 8.1-4.47 0-8.1-3.62-8.1-8.1 0-4.47 3.62-8.1 8.1-8.1C2472.45 824.83 2476.07 828.46 2476.07 832.93z" class="coloradbcff svgShape"/><circle cx="2538.28" cy="1003.53" r="8.7" fill="#60b73c" class="coloradbcff svgShape"/><path fill="#fff" d="M2528.13,824.83c1.52,1.07,2.54,2.13,3.36,3.2c0.89,1.07,1.46,2.13,1.91,3.2c0.79,2.13,1.45,4.27,0.43,6.4
				c-1.01,2.13-3.5,4.27-3.98,6.4c-0.54,2.13,0.29,4.27,1.75,6.4c1.51,2.13,2.7,4.27,3.09,6.4c0.59,2.13,1.21,4.27,0.96,6.4
				c-0.26,2.13-0.99,4.27-2.18,6.4c-1.15,2.13-2.82,4.27-5.34,6.4h-1.55c-2.52-2.13-4.19-4.27-5.34-6.4
				c-1.2-2.13-1.92-4.27-2.18-6.4c-0.25-2.13,0.37-4.27,0.96-6.4c0.39-2.13,1.58-4.27,3.09-6.4c1.46-2.13,2.3-4.27,1.75-6.4
				c-0.48-2.13-2.97-4.27-3.98-6.4c-1.02-2.13-0.36-4.27,0.43-6.4c0.45-1.07,1.03-2.13,1.91-3.2c0.82-1.07,1.83-2.13,3.36-3.2
				H2528.13z" class="color9199fb svgShape"/><circle cx="2527.36" cy="824.83" r="12.46" fill="#60b73c" class="coloradbcff svgShape"/><path fill="#fff" d="M2615.63,896.2c-1.07,1.52-2.13,2.54-3.2,3.36c-1.07,0.89-2.13,1.46-3.2,1.92c-2.13,0.79-4.27,1.45-6.4,0.43
				c-2.13-1.01-4.27-3.5-6.4-3.98c-2.13-0.54-4.27,0.29-6.4,1.75c-2.13,1.51-4.27,2.7-6.4,3.09c-2.13,0.59-4.27,1.21-6.4,0.96
				c-2.13-0.26-4.27-0.99-6.4-2.18c-2.13-1.15-4.27-2.82-6.4-5.34v-1.55c2.13-2.52,4.27-4.19,6.4-5.34c2.13-1.2,4.27-1.92,6.4-2.18
				c2.13-0.25,4.27,0.37,6.4,0.96c2.13,0.39,4.27,1.58,6.4,3.09c2.13,1.46,4.27,2.3,6.4,1.75c2.13-0.48,4.27-2.97,6.4-3.98
				c2.13-1.02,4.27-0.36,6.4,0.43c1.07,0.45,2.13,1.03,3.2,1.91c1.07,0.82,2.13,1.83,3.2,3.36V896.2z" class="color9199fb svgShape"/><path fill="#60b73c" d="M2615.63,907.88c-6.88,0-12.46-5.58-12.46-12.46c0-6.88,5.58-12.46,12.46-12.46
				c6.88,0,12.46,5.58,12.46,12.46C2628.08,902.3,2622.51,907.88,2615.63,907.88z" class="coloradbcff svgShape"/><path fill="#fff" d="M2436.14 906.42c1.07-1.52 2.13-2.54 3.2-3.36 1.07-.89 2.13-1.46 3.2-1.91 2.13-.79 4.27-1.45 6.4-.43 2.13 1.01 4.27 3.5 6.4 3.98 2.13.54 4.27-.29 6.4-1.75 2.13-1.5 4.27-2.7 6.4-3.09 2.13-.59 4.27-1.21 6.4-.96 2.13.26 4.27.99 6.4 2.18 2.13 1.15 4.27 2.82 6.4 5.34v1.55c-2.13 2.52-4.27 4.19-6.4 5.34-2.13 1.2-4.27 1.92-6.4 2.18-2.13.25-4.27-.37-6.4-.96-2.13-.39-4.27-1.58-6.4-3.09-2.13-1.46-4.27-2.3-6.4-1.75-2.13.48-4.27 2.97-6.4 3.98-2.13 1.02-4.27.36-6.4-.43-1.07-.45-2.13-1.03-3.2-1.91-1.07-.82-2.13-1.83-3.2-3.36V906.42zM2448.5 863.33c1.66-.84 3.08-1.24 4.4-1.46 1.36-.28 2.57-.29 3.72-.19 2.25.31 4.45.73 5.85 2.63 1.41 1.89 2.12 5.09 3.78 6.52 1.63 1.48 3.91 1.74 6.47 1.46 2.59-.33 5.04-.38 7.1.28 2.16.48 4.34.93 6.1 2.16 1.76 1.23 3.3 2.88 4.63 4.93 1.34 2.02 2.45 4.49 3.14 7.72l-.73 1.37c-3.07 1.23-5.74 1.69-8.16 1.71-2.45.05-4.67-.31-6.68-1.08-2-.78-3.59-2.33-5.2-3.85-1.7-1.35-3.02-3.4-4.2-5.73-1.2-2.29-2.69-4.03-4.83-4.55-2.11-.58-5.16.62-7.52.51-2.36-.1-3.94-1.69-5.45-3.39-.73-.9-1.4-1.91-1.93-3.19-.56-1.22-1.02-2.62-1.25-4.47L2448.5 863.33zM2604.25 940.9c-1.2.61-2.23.9-3.19 1.06-.98.2-1.86.21-2.7.13-1.63-.22-3.22-.53-4.24-1.9-1.02-1.37-1.54-3.69-2.74-4.72-1.18-1.07-2.83-1.26-4.69-1.06-1.87.24-3.64.27-5.14-.2-1.56-.35-3.14-.68-4.42-1.56-1.27-.89-2.39-2.08-3.35-3.57-.97-1.46-1.77-3.25-2.28-5.59l.53-.99c2.22-.89 4.15-1.23 5.9-1.24 1.77-.04 3.38.22 4.83.78 1.45.56 2.6 1.69 3.76 2.79 1.23.97 2.19 2.46 3.04 4.15.87 1.66 1.95 2.92 3.49 3.3 1.53.42 3.74-.45 5.44-.37 1.71.08 2.85 1.22 3.94 2.45.53.65 1.01 1.38 1.39 2.31.4.88.74 1.9.9 3.23L2604.25 940.9zM2571.44 839.38c.84 1.66 1.24 3.08 1.46 4.4.28 1.36.29 2.57.19 3.72-.31 2.25-.73 4.45-2.63 5.85-1.89 1.41-5.09 2.12-6.52 3.78-1.48 1.63-1.75 3.91-1.46 6.47.33 2.59.38 5.04-.28 7.1-.48 2.16-.93 4.34-2.16 6.1-1.23 1.76-2.88 3.3-4.93 4.63-2.02 1.34-4.49 2.45-7.72 3.14l-1.37-.73c-1.23-3.07-1.7-5.74-1.71-8.16-.05-2.45.31-4.67 1.08-6.68.78-2 2.33-3.59 3.85-5.2 1.35-1.7 3.4-3.02 5.73-4.2 2.29-1.2 4.03-2.69 4.55-4.83.58-2.11-.62-5.16-.51-7.52.1-2.36 1.69-3.94 3.39-5.45.9-.73 1.91-1.4 3.19-1.93 1.22-.56 2.62-1.02 4.47-1.25L2571.44 839.38z" class="color9199fb svgShape"/><path fill="#60b73c" d="M2442.37,894.74c6.88,0,12.46,5.58,12.46,12.46c0,6.88-5.58,12.46-12.46,12.46
				c-6.88,0-12.46-5.58-12.46-12.46C2429.91,900.32,2435.49,894.74,2442.37,894.74z" class="coloradbcff svgShape"/><g class="color000 svgShape"><path fill="#fff" d="M2581.42,981.31c-1.86,0.1-3.32-0.12-4.61-0.46c-1.36-0.3-2.47-0.78-3.48-1.35
				c-1.93-1.2-3.77-2.48-4.28-4.78c-0.52-2.3,0.14-5.52-0.8-7.49c-0.88-2.02-2.86-3.19-5.32-3.97c-2.5-0.76-4.75-1.71-6.37-3.15
				c-1.78-1.32-3.58-2.62-4.69-4.46c-1.1-1.84-1.84-3.97-2.21-6.39c-0.41-2.39-0.4-5.1,0.27-8.33l1.23-0.96
				c3.3,0.13,5.93,0.79,8.15,1.77c2.26,0.95,4.14,2.18,5.66,3.71c1.51,1.53,2.33,3.59,3.18,5.64c1,1.92,1.38,4.34,1.5,6.95
				c0.16,2.58,0.81,4.78,2.55,6.13c1.69,1.39,4.97,1.54,7.07,2.6c2.11,1.06,2.91,3.15,3.6,5.31c0.3,1.12,0.5,2.31,0.46,3.7
				c0.01,1.34-0.13,2.81-0.68,4.59L2581.42,981.31z" class="color9199fb svgShape"/><path fill="#60b73c" d="M2572.21,988.49c-4.23-5.43-3.26-13.25,2.16-17.48c5.43-4.23,13.25-3.26,17.48,2.16
				c4.23,5.43,3.26,13.25-2.17,17.48C2584.26,994.88,2576.44,993.91,2572.21,988.49z" class="coloradbcff svgShape"/></g><g class="color000 svgShape"><path fill="#fff" d="M2462.86,982.26c-0.81-2.42-1.06-4.43-1.09-6.27c-0.11-1.9,0.13-3.55,0.5-5.09c0.87-3,1.89-5.89,4.75-7.41
				c2.86-1.53,7.34-1.85,9.61-3.81c2.34-1.91,3.16-4.94,3.29-8.49c0.08-3.58,0.51-6.91,1.82-9.58c1.09-2.83,2.15-5.7,4.17-7.84
				c2.03-2.14,4.57-3.9,7.63-5.27c3.01-1.41,6.59-2.41,11.11-2.7l1.71,1.27c1.04,4.41,1.14,8.13,0.66,11.42
				c-0.42,3.33-1.37,6.27-2.82,8.84c-1.46,2.56-3.89,4.4-6.28,6.27c-2.17,2.03-5.23,3.41-8.63,4.54c-3.35,1.16-6.02,2.83-7.16,5.63
				c-1.21,2.74-0.21,7.13-0.84,10.31c-0.62,3.18-3.09,5-5.7,6.71c-1.37,0.81-2.87,1.51-4.72,1.96c-1.77,0.51-3.76,0.86-6.31,0.79
				L2462.86,982.26z" class="color9199fb svgShape"/><path fill="#60b73c" d="M2453.71,967.57c5.62-7.58,16.32-9.18,23.9-3.56c7.58,5.62,9.18,16.32,3.56,23.9
				c-5.62,7.58-16.32,9.18-23.9,3.56C2449.69,985.85,2448.09,975.15,2453.71,967.57z" class="coloradbcff svgShape"/><circle cx="2525.45" cy="911.3" r="62.7" fill="#60b73c" class="coloradbcff svgShape" transform="rotate(-80.781 2525.469 911.255)"/><path fill="#fff" d="M2479.03 885.31c4.02-5.43 11.68-6.57 17.1-2.55 5.43 4.02 6.57 11.68 2.55 17.1-4.02 5.43-11.68 6.57-17.1 2.55C2476.15 898.4 2475.01 890.74 2479.03 885.31zM2519.37 930.93c2.49-3.36 7.23-4.07 10.59-1.58 3.36 2.49 4.07 7.23 1.58 10.59-2.49 3.36-7.23 4.07-10.59 1.58C2517.59 939.03 2516.88 934.29 2519.37 930.93zM2544.41 901.85c4.15-5.6 12.06-6.78 17.66-2.63 5.6 4.15 6.78 12.06 2.63 17.66-4.15 5.6-12.06 6.78-17.66 2.63C2541.43 915.36 2540.25 907.46 2544.41 901.85zM2525.49 879.24c2.05-2.77 5.97-3.36 8.74-1.3 2.77 2.05 3.36 5.97 1.3 8.74-2.05 2.77-5.97 3.36-8.74 1.3C2524.02 885.93 2523.43 882.02 2525.49 879.24z" class="color9199fb svgShape"/></g></g><g class="color000 svgShape"><path fill="#60b73c" d="M761.5 1146.66c-1.6 3.48-5.72 5-9.2 3.4-3.48-1.6-5-5.72-3.4-9.2 1.6-3.48 5.72-5 9.2-3.4C761.58 1139.07 763.1 1143.18 761.5 1146.66zM665.75 1091.94c-1.6 3.48-5.72 5-9.2 3.4-3.48-1.6-5-5.72-3.4-9.2 1.6-3.48 5.72-5 9.2-3.4S667.35 1088.46 665.75 1091.94zM659.81 1250.06c-1.72 3.74-6.15 5.37-9.88 3.65-3.74-1.72-5.37-6.15-3.65-9.89 1.72-3.74 6.15-5.37 9.88-3.65C659.9 1241.89 661.53 1246.32 659.81 1250.06z" class="coloradbcff svgShape"/><path fill="#fff" d="M709.15,1104.29c0.8,1.38,1.21,2.57,1.47,3.69c0.31,1.15,0.37,2.18,0.34,3.18c-0.15,1.94-0.4,3.84-1.96,5.13
				c-1.55,1.3-4.25,2.07-5.39,3.55c-1.19,1.47-1.3,3.42-0.93,5.61c0.41,2.2,0.57,4.29,0.11,6.09c-0.31,1.87-0.58,3.75-1.55,5.32
				c-0.97,1.57-2.3,2.97-3.99,4.2c-1.66,1.25-3.72,2.31-6.45,3.07l-1.21-0.56c-1.2-2.56-1.73-4.82-1.86-6.89
				c-0.17-2.09,0.03-4.01,0.59-5.76c0.57-1.75,1.82-3.19,3.04-4.64c1.07-1.52,2.76-2.75,4.7-3.87c1.9-1.14,3.31-2.5,3.66-4.35
				c0.39-1.83-0.78-4.38-0.8-6.4c-0.03-2.02,1.25-3.45,2.63-4.83c0.73-0.67,1.56-1.29,2.64-1.8c1.02-0.54,2.19-1,3.76-1.29
				L709.15,1104.29z" class="color9199fb svgShape"/><path fill="#60b73c" d="M718.24,1108.48c-2.46,5.35-8.8,7.69-14.15,5.23c-5.35-2.46-7.69-8.8-5.23-14.15
				c2.46-5.35,8.8-7.69,14.15-5.23C718.36,1096.79,720.7,1103.12,718.24,1108.48z" class="coloradbcff svgShape"/><path fill="#fff" d="M751.65,1191.15c-1.38,0.8-2.57,1.21-3.69,1.47c-1.15,0.31-2.18,0.37-3.18,0.34
				c-1.94-0.15-3.84-0.4-5.13-1.96c-1.3-1.55-2.07-4.25-3.55-5.39c-1.47-1.19-3.42-1.3-5.61-0.93c-2.2,0.41-4.29,0.57-6.09,0.11
				c-1.87-0.31-3.75-0.58-5.32-1.55c-1.57-0.97-2.97-2.3-4.2-3.99c-1.25-1.66-2.31-3.72-3.07-6.45l0.56-1.21
				c2.56-1.2,4.82-1.73,6.89-1.86c2.09-0.17,4.01,0.03,5.76,0.59c1.75,0.57,3.19,1.82,4.64,3.04c1.52,1.07,2.75,2.76,3.87,4.7
				c1.14,1.9,2.5,3.31,4.35,3.66c1.83,0.39,4.38-0.78,6.4-0.8c2.02-0.03,3.45,1.25,4.83,2.63c0.67,0.73,1.29,1.56,1.8,2.64
				c0.54,1.02,1,2.19,1.29,3.76L751.65,1191.15z" class="color9199fb svgShape"/><path fill="#60b73c" d="M747.47,1200.23c-5.35-2.46-7.69-8.8-5.23-14.15c2.46-5.35,8.8-7.69,14.15-5.23
				c5.35,2.46,7.69,8.8,5.23,14.15C759.16,1200.36,752.82,1202.7,747.47,1200.23z" class="coloradbcff svgShape"/><path fill="#fff" d="M608.36 1134.81c1.38-.8 2.57-1.21 3.69-1.46 1.15-.31 2.18-.37 3.18-.34 1.94.15 3.84.4 5.13 1.96 1.3 1.55 2.07 4.25 3.55 5.39 1.47 1.19 3.42 1.3 5.61.93 2.2-.41 4.29-.57 6.09-.11 1.87.31 3.75.58 5.32 1.55 1.57.97 2.97 2.3 4.2 3.99 1.25 1.66 2.31 3.72 3.07 6.45l-.56 1.21c-2.56 1.2-4.82 1.73-6.89 1.86-2.09.17-4.01-.03-5.76-.59-1.75-.57-3.19-1.82-4.64-3.04-1.52-1.07-2.75-2.76-3.87-4.7-1.14-1.9-2.5-3.31-4.35-3.66-1.83-.39-4.38.78-6.4.8-2.02.03-3.45-1.25-4.83-2.63-.67-.73-1.29-1.56-1.8-2.64-.54-1.02-1-2.19-1.29-3.76L608.36 1134.81zM633.41 1105.72c1.59-.06 2.84.14 3.95.44 1.16.27 2.1.7 2.96 1.19 1.64 1.05 3.2 2.16 3.61 4.14.42 1.98-.17 4.72.61 6.43.74 1.74 2.41 2.76 4.51 3.45 2.13.67 4.05 1.51 5.43 2.76 1.51 1.15 3.04 2.28 3.97 3.87.93 1.59 1.54 3.42 1.83 5.5.32 2.05.29 4.37-.32 7.13l-1.06.81c-2.83-.15-5.07-.74-6.96-1.59-1.92-.83-3.52-1.91-4.81-3.23-1.28-1.32-1.96-3.1-2.67-4.86-.84-1.66-1.13-3.73-1.21-5.96-.11-2.21-.65-4.1-2.13-5.27-1.43-1.2-4.24-1.37-6.03-2.3-1.8-.93-2.46-2.72-3.03-4.59-.25-.96-.41-1.99-.35-3.17 0-1.15.14-2.4.63-3.92L633.41 1105.72zM726.79 1221.85c-1.15.05-2.05-.1-2.86-.32-.84-.19-1.52-.5-2.15-.86-1.19-.76-2.32-1.56-2.61-3-.3-1.43.12-3.42-.44-4.65-.53-1.26-1.75-1.99-3.27-2.5-1.54-.49-2.93-1.09-3.93-2-1.09-.83-2.2-1.65-2.88-2.8-.67-1.15-1.11-2.48-1.33-3.98-.23-1.48-.21-3.16.23-5.16l.77-.58c2.05.11 3.67.53 5.04 1.15 1.39.6 2.55 1.38 3.48 2.34.93.96 1.42 2.24 1.93 3.52.61 1.2.82 2.7.88 4.32.08 1.6.47 2.97 1.54 3.81 1.04.87 3.07.99 4.36 1.66 1.3.67 1.78 1.97 2.19 3.32.18.7.29 1.44.26 2.3 0 .83-.1 1.74-.45 2.84L726.79 1221.85zM737.63 1131.12c.06 1.59-.14 2.84-.44 3.95-.27 1.16-.7 2.1-1.19 2.96-1.05 1.64-2.16 3.2-4.14 3.61-1.98.42-4.72-.17-6.43.61-1.74.74-2.76 2.41-3.45 4.51-.67 2.13-1.51 4.05-2.76 5.42-1.15 1.51-2.28 3.04-3.87 3.97-1.59.93-3.42 1.54-5.5 1.83-2.05.32-4.37.29-7.13-.32l-.81-1.06c.15-2.83.74-5.07 1.59-6.96.83-1.92 1.91-3.52 3.23-4.81 1.32-1.28 3.1-1.96 4.86-2.67 1.66-.84 3.73-1.13 5.96-1.21 2.21-.11 4.1-.65 5.27-2.13 1.2-1.43 1.37-4.24 2.3-6.03.93-1.8 2.72-2.46 4.59-3.03.96-.25 1.99-.41 3.17-.36 1.15 0 2.41.14 3.92.63L737.63 1131.12z" class="color9199fb svgShape"/><path fill="#60b73c" d="M617.39,1127.96c5.35,2.46,7.69,8.8,5.23,14.15c-2.46,5.35-8.8,7.69-14.15,5.23
				c-5.35-2.46-7.69-8.8-5.23-14.15C605.7,1127.84,612.04,1125.49,617.39,1127.96z" class="coloradbcff svgShape"/><g class="color000 svgShape"><path fill="#fff" d="M694.56,1245.11c-1.48-0.59-2.54-1.28-3.43-2.01c-0.95-0.72-1.64-1.49-2.22-2.29
				c-1.07-1.62-2.04-3.27-1.61-5.25c0.42-1.98,2.08-4.24,2.06-6.12c0.03-1.89-1.08-3.5-2.72-4.99c-1.67-1.48-3.09-3.03-3.83-4.73
				c-0.91-1.66-1.85-3.32-2.05-5.15c-0.2-1.83-0.01-3.75,0.57-5.76c0.54-2,1.51-4.11,3.2-6.38l1.29-0.3
				c2.52,1.28,4.33,2.74,5.7,4.29c1.42,1.54,2.44,3.18,3.08,4.91c0.63,1.73,0.53,3.63,0.45,5.53c0.09,1.86-0.48,3.87-1.32,5.94
				c-0.8,2.06-1.08,4.01-0.21,5.68c0.82,1.69,3.31,2.98,4.57,4.56c1.27,1.58,1.13,3.49,0.9,5.42c-0.17,0.98-0.44,1.98-0.97,3.04
				c-0.47,1.05-1.11,2.14-2.17,3.33L694.56,1245.11z" class="color9199fb svgShape"/><path fill="#60b73c" d="M684.82,1247.39c-1.35-5.74,2.21-11.48,7.95-12.83c5.74-1.35,11.48,2.21,12.83,7.95
				c1.35,5.74-2.21,11.48-7.95,12.83C691.91,1256.69,686.17,1253.13,684.82,1247.39z" class="coloradbcff svgShape"/></g><g class="color000 svgShape"><path fill="#fff" d="M601.99,1203.38c0.24-2.17,0.76-3.82,1.4-5.27c0.6-1.52,1.37-2.71,2.21-3.78c1.75-2.02,3.58-3.9,6.35-4.06
				c2.77-0.17,6.37,1.19,8.84,0.48c2.5-0.65,4.23-2.71,5.6-5.42c1.35-2.76,2.87-5.19,4.85-6.8c1.87-1.81,3.71-3.66,6.05-4.61
				c2.35-0.94,4.95-1.39,7.83-1.37c2.85-0.02,5.99,0.49,9.61,1.88l0.88,1.6c-0.77,3.81-2.03,6.73-3.58,9.12
				c-1.52,2.44-3.31,4.39-5.36,5.87c-2.05,1.47-4.61,2.03-7.14,2.63c-2.42,0.8-5.29,0.78-8.34,0.44c-3.02-0.3-5.69,0.05-7.58,1.81
				c-1.93,1.7-2.72,5.47-4.34,7.72c-1.62,2.25-4.19,2.78-6.84,3.18c-1.35,0.14-2.78,0.15-4.38-0.16c-1.56-0.24-3.23-0.68-5.19-1.65
				L601.99,1203.38z" class="color9199fb svgShape"/><path fill="#60b73c" d="M600.13,1188.68c7.09-3.89,15.98-1.3,19.87,5.79c3.89,7.09,1.3,15.98-5.79,19.87
				c-7.09,3.89-15.98,1.3-19.87-5.79C590.45,1201.46,593.04,1192.56,600.13,1188.68z" class="coloradbcff svgShape"/><circle cx="676.09" cy="1170.6" r="53.7" fill="#60b73c" class="coloradbcff svgShape" transform="rotate(-82.998 676.131 1170.647)"/><path fill="#fff" d="M649.28 1133.76c5.07-2.78 11.44-.93 14.22 4.14 2.78 5.07.93 11.44-4.14 14.22-5.07 2.78-11.44.93-14.22-4.14C642.36 1142.9 644.21 1136.54 649.28 1133.76zM664.33 1183.69c3.14-1.72 7.08-.57 8.8 2.57 1.72 3.14.57 7.08-2.57 8.8-3.14 1.72-7.08.57-8.8-2.56C660.04 1189.35 661.19 1185.41 664.33 1183.69zM694.22 1170.04c5.24-2.87 11.81-.96 14.68 4.28 2.87 5.24.96 11.81-4.28 14.68-5.24 2.87-11.81.96-14.68-4.28C687.07 1179.49 688.99 1172.91 694.22 1170.04zM687.6 1145.67c2.59-1.42 5.84-.47 7.27 2.12s.47 5.84-2.12 7.27c-2.59 1.42-5.84.47-7.27-2.12C684.06 1150.35 685.01 1147.1 687.6 1145.67z" class="color9199fb svgShape"/></g></g></svg></svg>